<?xml version="1.0" encoding="UTF-8"?>
<svg xmlns="http://www.w3.org/2000/svg" xmlns:xlink="http://www.w3.org/1999/xlink" width="200px" height="200px" viewBox="0 0 200 200" version="1.1">
<defs>
<linearGradient id="linear0" gradientUnits="userSpaceOnUse" x1="112.625" y1="371.375" x2="135.543" y2="398.589" gradientTransform="matrix(0.390625,0,0,0.390625,0,0)">
<stop offset="0" style="stop-color:rgb(20%,90.980392%,32.54902%);stop-opacity:1;"/>
<stop offset="1" style="stop-color:rgb(43.921569%,97.254902%,63.529412%);stop-opacity:1;"/>
</linearGradient>
<linearGradient id="linear1" gradientUnits="userSpaceOnUse" x1="361.375" y1="351.375" x2="327.475" y2="323.43" gradientTransform="matrix(0.390625,0,0,0.390625,0,0)">
<stop offset="0" style="stop-color:rgb(50.980392%,52.941176%,86.27451%);stop-opacity:1;"/>
<stop offset="1" style="stop-color:rgb(75.686275%,73.333333%,93.72549%);stop-opacity:1;"/>
</linearGradient>
<linearGradient id="linear2" gradientUnits="userSpaceOnUse" x1="156.375" y1="177.125" x2="216.355" y2="205.875" gradientTransform="matrix(0.390625,0,0,0.390625,0,0)">
<stop offset="0" style="stop-color:rgb(36.470588%,74.509804%,59.607843%);stop-opacity:1;"/>
<stop offset="1" style="stop-color:rgb(63.529412%,90.980392%,77.647059%);stop-opacity:1;"/>
</linearGradient>
<linearGradient id="linear3" gradientUnits="userSpaceOnUse" x1="177.875" y1="402.126" x2="177.056" y2="423.951" gradientTransform="matrix(0.390625,0,0,0.390625,0,0)">
<stop offset="0" style="stop-color:rgb(3.921569%,63.921569%,78.039216%);stop-opacity:1;"/>
<stop offset="1" style="stop-color:rgb(21.568627%,43.921569%,100%);stop-opacity:1;"/>
</linearGradient>
<linearGradient id="linear4" gradientUnits="userSpaceOnUse" x1="104.874" y1="215.126" x2="113.226" y2="334.007" gradientTransform="matrix(0.390625,0,0,0.390625,0,0)">
<stop offset="0" style="stop-color:rgb(21.960784%,91.372549%,32.156863%);stop-opacity:1;"/>
<stop offset="1" style="stop-color:rgb(3.529412%,57.647059%,56.470588%);stop-opacity:1;"/>
</linearGradient>
<linearGradient id="linear5" gradientUnits="userSpaceOnUse" x1="209.875" y1="324.126" x2="250.817" y2="384.154" gradientTransform="matrix(0.390625,0,0,0.390625,0,0)">
<stop offset="0" style="stop-color:rgb(0%,62.352941%,52.54902%);stop-opacity:1;"/>
<stop offset="1" style="stop-color:rgb(12.54902%,36.862745%,70.980392%);stop-opacity:1;"/>
</linearGradient>
<linearGradient id="linear6" gradientUnits="userSpaceOnUse" x1="110.875" y1="139.125" x2="222.668" y2="299.074" gradientTransform="matrix(0.390625,0,0,0.390625,0,0)">
<stop offset="0" style="stop-color:rgb(85.098039%,92.941176%,60.784314%);stop-opacity:1;"/>
<stop offset="1" style="stop-color:rgb(66.27451%,93.333333%,69.411765%);stop-opacity:1;"/>
</linearGradient>
<linearGradient id="linear7" gradientUnits="userSpaceOnUse" x1="141.626" y1="319.875" x2="152.827" y2="361.551" gradientTransform="matrix(0.390625,0,0,0.390625,0,0)">
<stop offset="0" style="stop-color:rgb(2.745098%,69.803922%,22.352941%);stop-opacity:1;"/>
<stop offset="1" style="stop-color:rgb(21.176471%,92.941176%,33.333333%);stop-opacity:1;"/>
</linearGradient>
<linearGradient id="linear8" gradientUnits="userSpaceOnUse" x1="171.125" y1="88.6255" x2="397.705" y2="122.65" gradientTransform="matrix(0.390625,0,0,0.390625,0,0)">
<stop offset="0" style="stop-color:rgb(0%,50.588235%,44.313725%);stop-opacity:1;"/>
<stop offset="1" style="stop-color:rgb(2.745098%,47.45098%,58.823529%);stop-opacity:1;"/>
</linearGradient>
<linearGradient id="linear9" gradientUnits="userSpaceOnUse" x1="267.126" y1="146.875" x2="316.382" y2="257.552" gradientTransform="matrix(0.390625,0,0,0.390625,0,0)">
<stop offset="0" style="stop-color:rgb(5.882353%,53.72549%,65.490196%);stop-opacity:1;"/>
<stop offset="1" style="stop-color:rgb(27.45098%,62.352941%,84.313725%);stop-opacity:1;"/>
</linearGradient>
</defs>
<g id="surface1">
<path style=" stroke:none;fill-rule:nonzero;fill:rgb(53.72549%,93.333333%,78.039216%);fill-opacity:1;" d="M 83.246094 79.308594 L 88.125 84.03125 L 88.011719 84.082031 C 87.710938 83.769531 87.292969 83.203125 86.914062 83.03125 C 86.734375 82.949219 86.6875 82.859375 86.5625 82.71875 L 85.109375 81.25 L 84.984375 81.25 L 84.714844 81.007812 C 84.585938 81.15625 84.5 81.242188 84.472656 81.445312 C 84.34375 81.574219 84.246094 81.621094 84.210938 81.800781 C 84.175781 81.972656 84.089844 82.074219 84.007812 82.226562 L 83.933594 82.375 L 83.839844 82.488281 C 83.691406 82.671875 83.695312 82.816406 83.59375 83.007812 C 83.476562 83.222656 83.203125 83.3125 83.203125 83.570312 L 83.132812 83.648438 C 83.03125 83.765625 83.066406 83.714844 83.007812 83.863281 L 82.859375 83.984375 C 82.75 84.117188 82.695312 84.296875 82.617188 84.449219 C 82.515625 84.644531 82.378906 84.828125 82.277344 85.03125 C 82.1875 85.214844 82.078125 85.386719 81.953125 85.546875 C 81.859375 85.671875 81.804688 85.796875 81.738281 85.9375 L 81.523438 86.371094 L 81.097656 87.066406 C 80.957031 87.277344 80.867188 87.492188 80.710938 87.695312 L 80.621094 87.816406 C 80.515625 87.949219 80.40625 88.035156 80.273438 88.132812 C 80.273438 88.289062 80.253906 88.203125 80.371094 88.378906 L 80.320312 88.523438 L 80.175781 88.425781 L 79.90625 88.402344 C 80.363281 88.859375 80.800781 89.335938 81.296875 89.746094 L 82.636719 91.042969 C 82.785156 91.195312 82.828125 91.40625 82.882812 91.609375 C 82.238281 91.117188 81.648438 90.417969 81.070312 89.84375 C 80.554688 89.328125 79.882812 88.78125 79.472656 88.183594 C 79.480469 87.761719 79.179688 87.539062 78.917969 87.21875 C 79.171875 87.304688 79.363281 87.378906 79.546875 87.582031 L 79.640625 87.695312 C 79.878906 87.695312 79.789062 87.515625 79.980469 87.355469 C 80.164062 87.199219 80.257812 87.136719 80.371094 86.914062 L 80.519531 86.621094 C 80.703125 86.359375 80.539062 86.730469 80.6875 86.339844 C 80.75 86.167969 80.84375 86.007812 80.910156 85.839844 C 81.039062 85.496094 80.886719 85.808594 81.007812 85.570312 L 81.054688 85.472656 L 81.105469 85.351562 C 81.265625 85.058594 81.445312 84.703125 81.640625 84.433594 L 81.96875 83.945312 L 82.03125 83.863281 L 82.03125 83.765625 L 82.128906 83.667969 L 82.128906 83.570312 L 82.226562 83.496094 L 82.226562 83.375 L 82.324219 83.277344 L 82.375 83.203125 C 82.679688 82.792969 82.875 82.40625 83.246094 82.035156 L 83.789062 81.492188 C 83.796875 81.414062 83.804688 81.324219 83.839844 81.25 C 83.945312 81.027344 84.121094 80.960938 84.328125 80.859375 L 84.375 80.617188 C 84.015625 80.3125 83.339844 79.75 83.246094 79.308594 Z M 83.246094 79.308594 "/>
<path style=" stroke:none;fill-rule:nonzero;fill:url(#linear0);" d="M 43.476562 145.785156 C 43.542969 145.632812 43.503906 145.675781 43.621094 145.574219 C 43.765625 145.445312 43.683594 145.371094 43.773438 145.238281 C 44.023438 144.867188 44.757812 144.574219 45.140625 144.335938 L 45.261719 144.335938 C 45.390625 144.199219 45.476562 144.117188 45.644531 144.027344 C 45.867188 143.90625 46.039062 143.765625 46.238281 143.605469 L 46.433594 143.652344 L 46.53125 143.507812 L 46.726562 143.554688 L 46.921875 143.3125 L 46.996094 143.433594 L 47.191406 143.261719 C 47.292969 143.328125 47.234375 143.3125 47.363281 143.3125 C 47.410156 143.273438 47.527344 143.183594 47.582031 143.164062 L 47.753906 143.140625 L 47.875 143.066406 L 48.046875 143.042969 L 48.167969 142.96875 L 48.339844 142.945312 C 48.519531 142.886719 48.867188 142.808594 49.023438 142.726562 C 49.242188 142.609375 49.261719 142.628906 49.511719 142.628906 L 49.65625 142.53125 C 49.898438 142.542969 49.914062 142.507812 50.121094 142.40625 L 50.292969 142.433594 L 50.414062 142.398438 C 50.625 142.351562 50.507812 142.398438 50.671875 142.328125 C 50.894531 142.226562 51.132812 142.199219 51.367188 142.136719 C 51.601562 141.90625 51.949219 142.160156 52.269531 141.867188 L 52.390625 141.75 L 52.539062 141.847656 C 52.597656 142.039062 52.652344 142.195312 52.761719 142.367188 L 52.851562 142.503906 L 53.515625 144.867188 L 55.332031 149.902344 L 56.367188 152.160156 L 56.394531 152.167969 C 56.46875 152.332031 57.019531 153.4375 56.996094 153.5 L 56.847656 153.527344 L 56.804688 153.441406 C 56.730469 153.300781 56.636719 153.179688 56.542969 153.050781 C 56.398438 153.265625 56.558594 153.539062 56.394531 153.808594 C 56.28125 154 56.253906 154.140625 56.199219 154.347656 C 56.15625 154.515625 56.15625 154.476562 56.074219 154.632812 C 55.992188 154.792969 55.988281 154.855469 56.003906 155.03125 L 55.90625 155.175781 L 55.808594 155.421875 C 55.757812 155.554688 55.699219 155.648438 55.617188 155.761719 L 55.613281 155.910156 C 55.597656 156.171875 55.472656 156.421875 55.273438 156.59375 L 55.273438 156.738281 C 55.082031 156.851562 55.066406 156.824219 54.980469 157.03125 L 54.832031 157.324219 L 54.777344 157.460938 C 54.660156 157.699219 54.4375 157.878906 54.246094 158.058594 C 54.25 158.277344 54.21875 158.304688 54.34375 158.496094 L 54.339844 158.695312 L 54.339844 158.867188 C 53.597656 158.335938 52.886719 157.636719 52.222656 157.011719 C 50.203125 155.378906 48.398438 153.226562 46.765625 151.222656 C 45.761719 149.988281 44.722656 148.71875 43.941406 147.332031 Z M 43.476562 145.785156 "/>
<path style=" stroke:none;fill-rule:nonzero;fill:rgb(20.784314%,95.294118%,70.588235%);fill-opacity:1;" d="M 52.222656 157.011719 C 52.164062 156.800781 52.109375 156.539062 52 156.347656 L 51.90625 156.203125 L 52.148438 155.664062 C 52.234375 155.457031 52.140625 155.566406 52.296875 155.410156 L 52.390625 155.320312 L 52.34375 155.125 C 52.488281 154.96875 52.617188 154.828125 52.714844 154.636719 C 52.820312 154.425781 52.738281 154.554688 52.875 154.34375 L 53.171875 153.90625 C 53.367188 153.617188 53.488281 153.320312 53.660156 153.027344 L 53.90625 152.636719 L 53.90625 152.492188 L 54.101562 152.34375 L 54.296875 151.832031 C 54.363281 151.640625 54.402344 151.335938 54.515625 151.171875 C 54.691406 150.917969 54.605469 151.140625 54.691406 150.867188 L 54.917969 150.222656 L 54.933594 150.148438 L 55.332031 149.902344 L 56.367188 152.160156 L 56.394531 152.167969 C 56.46875 152.328125 57.019531 153.4375 56.996094 153.5 L 56.847656 153.527344 L 56.804688 153.441406 C 56.730469 153.300781 56.636719 153.179688 56.542969 153.050781 C 56.398438 153.265625 56.558594 153.539062 56.394531 153.808594 C 56.28125 154 56.253906 154.140625 56.199219 154.34375 C 56.15625 154.515625 56.15625 154.476562 56.074219 154.632812 C 55.996094 154.792969 55.988281 154.855469 56.003906 155.03125 L 55.90625 155.175781 L 55.808594 155.421875 C 55.757812 155.554688 55.699219 155.648438 55.617188 155.761719 L 55.613281 155.90625 C 55.597656 156.171875 55.472656 156.421875 55.273438 156.59375 L 55.273438 156.738281 C 55.082031 156.851562 55.066406 156.824219 54.980469 157.03125 L 54.832031 157.324219 L 54.777344 157.460938 C 54.660156 157.699219 54.4375 157.878906 54.246094 158.054688 C 54.25 158.277344 54.21875 158.304688 54.34375 158.496094 L 54.339844 158.695312 L 54.339844 158.867188 C 53.597656 158.335938 52.886719 157.636719 52.222656 157.011719 Z M 52.222656 157.011719 "/>
<path style=" stroke:none;fill-rule:nonzero;fill:url(#linear1);" d="M 136.023438 143.527344 C 135.402344 143.046875 134.832031 142.425781 134.257812 141.882812 C 132.839844 140.535156 131.46875 139.144531 130.097656 137.753906 C 126.699219 134.316406 123.3125 130.890625 119.785156 127.589844 L 119.921875 127.515625 C 120.382812 127.859375 120.722656 128.367188 121.179688 128.722656 C 121.292969 128.8125 121.378906 128.910156 121.484375 129.003906 L 121.851562 129.320312 L 123.113281 130.578125 L 123.316406 130.785156 C 123.621094 130.976562 123.367188 130.734375 123.605469 130.972656 L 124.742188 132.101562 L 125.03125 131.585938 L 125.246094 131.152344 C 125.316406 131.015625 125.386719 130.894531 125.425781 130.742188 C 125.460938 130.601562 125.558594 130.546875 125.660156 130.445312 L 125.539062 130.324219 L 125.734375 130.175781 L 125.734375 130.03125 L 125.929688 129.882812 L 125.976562 129.710938 L 126.027344 129.589844 C 126.105469 129.355469 126.023438 129.476562 126.171875 129.308594 L 126.269531 129.199219 L 126.320312 129.054688 L 126.539062 128.980469 L 126.417969 128.859375 L 126.636719 128.785156 L 126.515625 128.664062 L 126.734375 128.589844 L 126.613281 128.46875 L 126.710938 128.320312 C 126.796875 128.199219 126.863281 128.113281 126.933594 127.976562 C 127.035156 127.765625 126.964844 127.890625 127.101562 127.6875 L 127.320312 127.710938 C 127.230469 127.59375 127.246094 127.652344 127.246094 127.539062 L 127.515625 127.417969 L 127.394531 127.296875 L 127.613281 127.222656 L 127.492188 127.101562 L 127.734375 126.757812 L 127.90625 126.734375 L 127.785156 126.613281 L 128.078125 126.222656 L 128.222656 126.269531 L 128.273438 126.195312 L 128.078125 126.125 L 128.175781 126.027344 L 128.394531 126.050781 L 128.273438 125.878906 L 128.371094 125.734375 L 128.589844 125.757812 L 128.46875 125.636719 L 128.761719 125.246094 L 128.980469 125.269531 C 129.066406 125.070312 129.019531 125.128906 129.15625 124.988281 C 129.277344 124.867188 129.253906 124.867188 129.296875 124.707031 L 129.347656 124.535156 L 127.367188 122.550781 C 127.160156 122.320312 126.90625 122.144531 126.714844 121.90625 C 126.183594 121.25 125.492188 120.652344 124.894531 120.054688 C 123.984375 119.148438 123.085938 118.191406 122.132812 117.332031 L 120.726562 115.894531 L 120.800781 115.832031 L 143.957031 138.679688 L 143.753906 138.753906 L 141.613281 136.660156 L 141.160156 137.183594 L 141.1875 137.304688 L 141.066406 137.449219 L 140.964844 137.355469 C 140.839844 137.488281 140.734375 137.609375 140.625 137.757812 C 140.519531 137.898438 140.410156 138.011719 140.285156 138.132812 L 140.136719 138.136719 L 140.136719 138.28125 L 140.03125 138.34375 L 139.738281 138.53125 C 139.503906 138.6875 139.699219 138.570312 139.453125 138.671875 L 139.160156 138.816406 L 139 138.894531 C 138.820312 138.984375 138.769531 139.121094 138.574219 139.160156 L 138.5 139.234375 L 138.402344 139.257812 L 138.304688 139.332031 L 138.207031 139.355469 L 138.011719 139.5 L 137.882812 139.585938 C 137.695312 139.71875 137.582031 139.898438 137.453125 140.085938 L 137.304688 140.089844 L 137.207031 140.160156 C 136.988281 140.269531 136.828125 140.320312 136.621094 140.480469 L 136.621094 140.625 C 135.847656 141.246094 135.265625 141.160156 134.914062 142.238281 C 135.164062 142.484375 135.410156 142.730469 135.6875 142.953125 C 135.878906 143.105469 135.957031 143.300781 136.023438 143.527344 Z M 136.023438 143.527344 "/>
<path style=" stroke:none;fill-rule:nonzero;fill:rgb(51.764706%,52.156863%,85.882353%);fill-opacity:1;" d="M 136.023438 143.527344 C 135.957031 143.300781 135.878906 143.105469 135.6875 142.953125 C 135.410156 142.730469 135.164062 142.484375 134.914062 142.238281 C 135.265625 141.160156 135.847656 141.246094 136.621094 140.625 L 136.621094 140.480469 C 136.828125 140.320312 136.988281 140.269531 137.207031 140.160156 L 137.304688 140.089844 L 137.453125 140.085938 C 137.582031 139.898438 137.695312 139.71875 137.882812 139.585938 L 138.011719 139.5 L 138.207031 139.355469 L 138.304688 139.332031 L 138.402344 139.257812 L 138.5 139.234375 L 138.574219 139.160156 C 138.769531 139.121094 138.820312 138.984375 139 138.894531 L 139.160156 138.816406 L 139.453125 138.671875 C 139.699219 138.570312 139.503906 138.6875 139.738281 138.53125 L 140.03125 138.34375 L 140.136719 138.28125 L 140.136719 138.136719 L 140.285156 138.132812 C 140.410156 138.011719 140.519531 137.898438 140.625 137.757812 C 140.734375 137.609375 140.839844 137.488281 140.964844 137.355469 L 141.066406 137.449219 L 141.1875 137.304688 L 141.160156 137.183594 L 141.613281 136.660156 L 143.753906 138.753906 L 143.957031 138.679688 C 145.636719 140.132812 147.199219 141.785156 148.78125 143.339844 C 150.714844 145.242188 152.871094 147.195312 154.546875 149.328125 L 148.476562 155.4375 C 145.417969 152.601562 142.457031 149.671875 139.429688 146.808594 C 138.515625 145.945312 137.601562 145.085938 136.699219 144.210938 C 136.570312 144.085938 136.0625 143.664062 136.023438 143.527344 Z M 136.023438 143.527344 "/>
<path style=" stroke:none;fill-rule:nonzero;fill:url(#linear2);" d="M 66.417969 63.007812 C 70.273438 66.476562 73.886719 70.25 77.613281 73.851562 C 79.160156 75.347656 80.769531 76.769531 82.28125 78.300781 C 82.539062 78.558594 83.09375 78.996094 83.246094 79.308594 C 83.339844 79.75 84.015625 80.3125 84.375 80.617188 L 84.328125 80.859375 C 84.121094 80.960938 83.945312 81.027344 83.839844 81.25 C 83.804688 81.324219 83.796875 81.414062 83.789062 81.492188 L 83.246094 82.035156 C 82.875 82.40625 82.679688 82.792969 82.375 83.203125 L 82.324219 83.277344 L 82.226562 83.375 L 82.226562 83.496094 L 82.128906 83.570312 L 82.128906 83.667969 L 82.03125 83.765625 L 82.03125 83.863281 L 81.96875 83.945312 L 81.640625 84.433594 C 81.445312 84.703125 81.265625 85.058594 81.105469 85.351562 L 81.054688 85.472656 L 81.007812 85.570312 C 80.886719 85.808594 81.039062 85.496094 80.910156 85.839844 C 80.84375 86.007812 80.75 86.167969 80.6875 86.339844 C 80.539062 86.730469 80.703125 86.359375 80.519531 86.621094 L 80.371094 86.914062 C 80.257812 87.136719 80.164062 87.199219 79.980469 87.355469 C 79.789062 87.515625 79.878906 87.695312 79.640625 87.695312 L 79.546875 87.582031 C 79.363281 87.378906 79.171875 87.304688 78.917969 87.21875 L 60.167969 68.59375 L 60.371094 68.613281 L 60.570312 68.824219 C 60.898438 69.035156 60.609375 68.757812 60.851562 69 L 60.9375 69.09375 L 61.179688 69.09375 C 61.074219 68.976562 60.980469 68.898438 60.839844 68.824219 C 60.636719 68.714844 60.664062 68.6875 60.570312 68.488281 C 61.046875 68.566406 61.96875 68.960938 62.390625 68.835938 L 62.5 68.800781 L 62.980469 68.664062 C 64.023438 68.308594 64.25 67.398438 64.996094 66.761719 C 65.460938 66.367188 65.894531 66.359375 66.210938 65.722656 L 66.359375 65.429688 C 66.503906 65.222656 66.457031 65.054688 66.457031 64.796875 L 66.84375 64.699219 L 66.894531 64.992188 L 66.984375 64.949219 C 67.21875 64.835938 67.449219 64.550781 67.53125 64.304688 C 67.328125 64.058594 67.078125 63.820312 66.847656 63.597656 C 66.695312 63.457031 66.589844 63.351562 66.496094 63.167969 Z M 66.417969 63.007812 "/>
<path style=" stroke:none;fill-rule:nonzero;fill:rgb(86.27451%,54.509804%,54.509804%);fill-opacity:1;" d="M 60.167969 68.59375 C 59.960938 68.492188 59.710938 68.175781 59.539062 68.007812 C 59.078125 67.566406 58.617188 67.117188 58.15625 66.675781 C 55.484375 64.109375 52.84375 61.511719 50.167969 58.953125 C 48.101562 56.972656 45.804688 55.140625 43.90625 53.003906 C 44.199219 52.289062 45.152344 51.484375 45.6875 50.917969 C 47.03125 49.492188 48.339844 48.054688 49.796875 46.746094 L 66.417969 63.007812 L 66.496094 63.167969 C 66.589844 63.351562 66.695312 63.457031 66.847656 63.597656 C 67.078125 63.820312 67.332031 64.058594 67.53125 64.304688 C 67.449219 64.550781 67.21875 64.835938 66.984375 64.949219 L 66.894531 64.992188 L 66.84375 64.699219 L 66.457031 64.796875 C 66.457031 65.054688 66.503906 65.222656 66.359375 65.429688 L 66.210938 65.722656 C 65.894531 66.359375 65.460938 66.367188 64.996094 66.761719 C 64.25 67.398438 64.023438 68.308594 62.980469 68.664062 L 62.5 68.800781 L 62.390625 68.835938 C 61.96875 68.960938 61.046875 68.566406 60.570312 68.488281 C 60.664062 68.6875 60.636719 68.714844 60.839844 68.824219 C 60.980469 68.898438 61.074219 68.976562 61.179688 69.09375 L 60.9375 69.09375 L 60.851562 69 C 60.609375 68.757812 60.898438 69.035156 60.570312 68.824219 L 60.371094 68.613281 Z M 60.167969 68.59375 "/>
<path style=" stroke:none;fill-rule:nonzero;fill:rgb(27.058824%,73.333333%,43.137255%);fill-opacity:1;" d="M 88.511719 76.582031 C 88.3125 76.480469 88.03125 76.132812 87.867188 75.972656 C 87.203125 75.339844 86.546875 74.695312 85.894531 74.046875 C 83.507812 71.6875 81.125 69.316406 78.707031 66.984375 C 76.558594 64.914062 74.335938 62.917969 72.175781 60.859375 C 68.132812 56.996094 64.125 53.078125 60.136719 49.15625 C 58.121094 47.179688 55.984375 45.328125 54.070312 43.246094 C 54.425781 42.757812 55.121094 42.316406 55.59375 41.929688 C 58.90625 39.21875 62.566406 36.65625 66.328125 34.597656 C 67.917969 35.714844 69.34375 36.992188 70.800781 38.273438 C 72.703125 39.945312 74.578125 41.636719 76.4375 43.355469 C 78.558594 45.3125 80.753906 47.191406 82.859375 49.167969 C 86.550781 52.628906 90.164062 56.191406 93.953125 59.550781 C 95.113281 60.664062 96.253906 61.792969 97.386719 62.9375 C 98.027344 63.589844 98.691406 64.386719 99.417969 64.933594 L 99.527344 65.179688 L 99.386719 65.121094 C 99.207031 65.039062 99.148438 64.984375 99.023438 64.84375 C 98.835938 64.632812 98.609375 64.300781 98.339844 64.210938 L 98.292969 64.109375 C 98.132812 64.191406 98.058594 64.324219 97.898438 64.40625 C 97.902344 64.703125 97.960938 64.882812 97.730469 65.113281 L 97.65625 65.183594 C 97.445312 65.390625 97.515625 65.589844 97.308594 65.851562 C 97.191406 66 97.039062 65.957031 97.007812 66.09375 C 96.96875 66.246094 96.894531 66.363281 96.824219 66.503906 L 96.757812 66.652344 C 96.667969 66.832031 96.527344 66.890625 96.433594 67.039062 L 96.386719 67.1875 L 95.949219 67.578125 L 95.847656 67.429688 C 95.667969 67.628906 95.070312 68.140625 95.070312 68.359375 C 94.902344 68.511719 94.765625 68.675781 94.53125 68.703125 L 94.53125 68.847656 C 94.4375 68.972656 94.351562 69.082031 94.238281 69.1875 C 94.046875 69.113281 94.050781 69.070312 93.847656 69.140625 L 93.777344 69.289062 C 93.652344 69.535156 93.425781 69.699219 93.214844 69.871094 L 93.066406 69.875 L 93.066406 70.019531 C 92.933594 70.148438 92.972656 70.164062 92.773438 70.164062 L 92.773438 70.3125 C 92.660156 70.3125 92.71875 70.328125 92.601562 70.238281 L 92.578125 70.410156 L 92.433594 70.457031 L 92.1875 70.261719 L 92.105469 70.34375 C 91.949219 70.503906 91.75 70.746094 91.527344 70.800781 C 91.347656 70.972656 91.167969 71.238281 90.917969 71.242188 L 90.820312 71.3125 C 90.699219 71.394531 90.707031 71.382812 90.574219 71.4375 L 90.527344 71.582031 C 90.390625 71.6875 90.265625 71.71875 90.136719 71.800781 C 90.054688 71.855469 90.03125 71.9375 89.988281 72.023438 C 89.855469 72.109375 89.78125 72.125 89.648438 72.191406 L 89.527344 72.265625 L 89.355469 72.3125 C 89.203125 72.382812 89.199219 72.488281 89.109375 72.609375 C 88.949219 72.820312 87.726562 73.679688 87.5 73.679688 L 87.5 73.828125 C 87.386719 73.828125 87.445312 73.84375 87.328125 73.753906 L 87.304688 73.925781 C 87.257812 74.058594 87.152344 74.164062 87.0625 74.265625 L 86.914062 74.265625 L 86.960938 74.386719 C 87.03125 74.554688 87.015625 74.550781 86.988281 74.730469 L 87.109375 74.78125 L 87.253906 74.851562 L 87.132812 74.976562 L 88.746094 76.585938 Z M 88.511719 76.582031 "/>
<path style=" stroke:none;fill-rule:nonzero;fill:rgb(30.196078%,77.254902%,71.372549%);fill-opacity:1;" d="M 88.511719 76.582031 L 88.746094 76.585938 L 87.132812 74.976562 L 87.253906 74.851562 L 87.109375 74.78125 L 86.988281 74.730469 C 87.015625 74.550781 87.03125 74.554688 86.960938 74.386719 L 86.914062 74.265625 L 87.0625 74.265625 C 87.152344 74.164062 87.257812 74.058594 87.304688 73.925781 L 87.328125 73.753906 C 87.445312 73.84375 87.386719 73.828125 87.5 73.828125 L 87.5 73.679688 C 87.726562 73.679688 88.949219 72.820312 89.109375 72.609375 C 89.199219 72.488281 89.203125 72.382812 89.355469 72.3125 L 89.527344 72.265625 L 89.648438 72.191406 C 89.78125 72.125 89.855469 72.109375 89.988281 72.023438 C 90.03125 71.9375 90.054688 71.855469 90.136719 71.800781 C 90.265625 71.71875 90.390625 71.6875 90.527344 71.582031 L 90.574219 71.4375 C 90.707031 71.382812 90.699219 71.394531 90.820312 71.3125 L 90.917969 71.242188 C 91.167969 71.238281 91.347656 70.972656 91.527344 70.800781 C 91.75 70.746094 91.949219 70.503906 92.105469 70.34375 L 92.1875 70.261719 L 92.429688 70.457031 L 92.578125 70.410156 L 92.601562 70.238281 C 92.71875 70.328125 92.660156 70.3125 92.773438 70.3125 L 92.773438 70.164062 C 92.972656 70.164062 92.933594 70.148438 93.066406 70.019531 L 93.066406 69.875 L 93.210938 69.871094 C 93.421875 69.699219 93.652344 69.535156 93.777344 69.289062 L 93.847656 69.140625 C 94.050781 69.070312 94.046875 69.113281 94.238281 69.1875 C 94.351562 69.082031 94.4375 68.972656 94.53125 68.847656 L 94.53125 68.703125 C 94.765625 68.675781 94.902344 68.511719 95.070312 68.359375 C 95.070312 68.140625 95.667969 67.628906 95.847656 67.429688 L 95.945312 67.578125 L 96.386719 67.1875 L 96.433594 67.039062 C 96.527344 66.890625 96.667969 66.832031 96.757812 66.652344 L 96.824219 66.503906 C 96.894531 66.363281 96.96875 66.246094 97.007812 66.09375 C 97.039062 65.957031 97.191406 66 97.308594 65.851562 C 97.515625 65.589844 97.445312 65.390625 97.65625 65.183594 L 97.730469 65.113281 C 97.960938 64.882812 97.902344 64.703125 97.898438 64.40625 C 98.058594 64.324219 98.132812 64.191406 98.289062 64.109375 L 98.339844 64.210938 C 98.609375 64.300781 98.835938 64.632812 99.023438 64.84375 C 99.148438 64.984375 99.207031 65.039062 99.386719 65.121094 L 99.527344 65.179688 C 100.402344 65.765625 101.238281 66.808594 102 67.5625 C 103.277344 68.835938 104.589844 70.082031 105.882812 71.34375 C 109.726562 75.09375 113.59375 78.828125 117.410156 82.613281 C 119.949219 85.128906 122.429688 87.6875 124.988281 90.1875 C 126.644531 91.804688 128.261719 93.464844 129.929688 95.070312 C 130.65625 95.773438 131.363281 96.554688 132.171875 97.160156 C 131.535156 98.050781 131.078125 99.074219 130.589844 100.050781 C 128.707031 103.8125 127.253906 107.765625 126.296875 111.867188 C 126.21875 112.207031 126.066406 112.683594 125.785156 112.878906 L 125.644531 112.988281 Z M 88.511719 76.582031 "/>
<path style=" stroke:none;fill-rule:nonzero;fill:rgb(51.764706%,52.156863%,85.882353%);fill-opacity:1;" d="M 90.5 144.121094 C 91.359375 144.632812 92.113281 145.460938 92.84375 146.144531 C 93.53125 146.789062 94.28125 147.40625 94.925781 148.089844 L 98.3125 151.058594 C 99.746094 152.476562 101.320312 153.773438 102.8125 155.128906 C 104.023438 156.21875 105.214844 157.519531 106.535156 158.46875 C 109.167969 160.839844 111.730469 163.285156 114.367188 165.652344 C 116.078125 167.183594 117.835938 168.660156 119.542969 170.191406 C 120.160156 170.742188 121.042969 171.355469 121.460938 172.0625 C 117.429688 173.433594 113.199219 174.496094 108.984375 175.070312 C 106.246094 175.4375 103.445312 175.558594 100.683594 175.609375 C 91.464844 175.769531 82.015625 174.371094 73.523438 170.664062 C 71.46875 169.769531 69.351562 168.789062 67.558594 167.429688 L 67.15625 167.132812 L 66.84375 167.183594 C 66.378906 167.226562 65.449219 166.582031 65.035156 166.347656 C 61.320312 164.257812 57.480469 161.75 54.339844 158.867188 L 54.339844 158.695312 L 54.34375 158.496094 C 54.21875 158.304688 54.25 158.277344 54.246094 158.058594 C 54.4375 157.878906 54.660156 157.699219 54.777344 157.460938 L 54.832031 157.324219 L 54.980469 157.03125 C 55.066406 156.824219 55.082031 156.851562 55.273438 156.738281 L 55.273438 156.59375 C 55.472656 156.421875 55.597656 156.171875 55.613281 155.910156 L 55.617188 155.761719 C 55.699219 155.648438 55.757812 155.554688 55.808594 155.421875 L 55.90625 155.175781 L 56.003906 155.03125 C 55.988281 154.855469 55.992188 154.792969 56.074219 154.632812 C 56.15625 154.476562 56.15625 154.515625 56.199219 154.347656 C 56.253906 154.140625 56.28125 154 56.394531 153.808594 C 56.558594 153.539062 56.398438 153.265625 56.542969 153.050781 C 56.636719 153.179688 56.730469 153.300781 56.804688 153.441406 L 56.847656 153.527344 L 56.996094 153.5 C 57.019531 153.4375 56.46875 152.332031 56.394531 152.167969 L 56.542969 152.105469 C 56.65625 152.253906 56.6875 152.246094 56.6875 152.441406 C 56.835938 152.625 56.835938 152.617188 56.882812 152.832031 C 56.929688 153.035156 57.148438 153.363281 57.269531 153.535156 C 57.335938 153.628906 57.351562 153.699219 57.375 153.808594 L 57.445312 153.875 C 57.570312 154.003906 57.621094 154.148438 57.671875 154.320312 C 57.71875 154.476562 57.789062 154.53125 57.910156 154.640625 L 57.925781 154.75 C 57.960938 154.921875 58.015625 154.9375 58.105469 155.078125 L 58.277344 155.394531 C 58.371094 155.574219 58.453125 155.707031 58.59375 155.851562 C 58.703125 155.960938 58.894531 156.296875 58.984375 156.445312 L 59.03125 156.59375 C 59.121094 156.796875 59.316406 157.042969 59.449219 157.226562 L 59.617188 157.375 L 59.617188 157.519531 C 59.730469 157.726562 59.820312 157.820312 60.007812 157.960938 L 60.007812 158.058594 C 60.238281 158.058594 60.328125 158.105469 60.511719 157.960938 C 60.921875 157.632812 62.203125 157.757812 62.746094 157.765625 L 62.890625 157.667969 C 63.207031 157.667969 64.109375 157.765625 64.304688 157.570312 L 64.429688 157.691406 L 64.550781 157.570312 C 64.777344 157.570312 65.335938 157.628906 65.503906 157.519531 L 65.625 157.617188 L 65.773438 157.472656 L 65.917969 157.570312 C 66.136719 157.570312 66.34375 157.628906 66.503906 157.472656 L 66.675781 157.570312 L 66.796875 157.472656 C 67.011719 157.472656 67.125 157.53125 67.285156 157.375 C 67.515625 157.375 67.574219 157.410156 67.773438 157.277344 C 68.003906 157.277344 68.0625 157.3125 68.261719 157.179688 C 68.46875 157.179688 68.46875 157.203125 68.652344 157.082031 L 69.117188 157.054688 L 68.898438 156.957031 L 68.871094 156.835938 C 69.527344 156.652344 71.023438 156.722656 71.679688 156.886719 L 72.3125 156.886719 L 72.4375 157.105469 L 72.214844 157.152344 L 72.265625 157.277344 L 72.507812 157.277344 L 72.609375 157.375 C 72.738281 157.375 72.875 157.332031 73 157.375 C 73.222656 157.449219 73.015625 157.570312 73.390625 157.570312 L 73.484375 157.667969 L 73.679688 157.667969 L 73.78125 157.765625 L 73.882812 157.78125 C 74.054688 157.8125 74.15625 157.898438 74.316406 157.960938 L 74.488281 158.007812 L 74.601562 158.058594 C 74.738281 158.121094 74.671875 158.105469 74.828125 158.105469 L 74.925781 158.203125 C 75.15625 158.269531 75.292969 158.308594 75.488281 158.449219 C 75.570312 158.449219 75.867188 158.417969 75.929688 158.449219 C 76.007812 158.488281 76.039062 158.605469 76.125 158.644531 C 76.355469 158.742188 76.585938 158.519531 76.804688 158.742188 C 77.058594 158.742188 77.226562 158.695312 77.441406 158.839844 C 77.941406 158.839844 79.324219 158.695312 79.6875 158.9375 L 79.796875 158.941406 C 80.199219 158.960938 80.519531 159.054688 80.902344 159.136719 C 82.5 159.496094 83.996094 160.183594 85.625 160.507812 C 87.605469 160.898438 89.527344 160.785156 91.503906 160.988281 L 91.75 160.988281 L 91.835938 161.078125 C 91.972656 161.214844 91.917969 161.164062 92.089844 161.28125 L 92.140625 161.132812 L 92.300781 160.925781 L 92.617188 160.429688 C 93.371094 157.980469 92.96875 154.929688 92.683594 152.421875 L 92.558594 152.414062 C 92.589844 151.832031 92.40625 151.179688 92.292969 150.609375 C 91.84375 148.382812 91.050781 146.308594 90.5 144.121094 Z M 90.5 144.121094 "/>
<path style=" stroke:none;fill-rule:nonzero;fill:rgb(23.921569%,56.862745%,83.921569%);fill-opacity:1;" d="M 90.5 144.121094 C 91.359375 144.632812 92.113281 145.460938 92.84375 146.144531 C 93.53125 146.789062 94.28125 147.40625 94.925781 148.089844 L 94.742188 148.117188 C 94.578125 147.96875 94.441406 147.875 94.261719 147.753906 C 93.835938 147.464844 93.539062 146.96875 93.089844 146.679688 C 92.585938 146.351562 92.238281 145.746094 91.722656 145.410156 L 91.453125 145.167969 L 91.308594 145.261719 L 91.113281 145.363281 C 91.144531 145.5625 91.175781 145.722656 91.257812 145.910156 C 91.355469 146.125 91.261719 145.90625 91.355469 146.191406 C 91.433594 146.421875 91.511719 146.632812 91.570312 146.867188 C 91.609375 147.019531 91.59375 146.949219 91.675781 147.113281 C 91.765625 147.289062 91.761719 147.371094 91.75 147.558594 L 91.84375 147.65625 C 91.910156 147.902344 91.960938 148.140625 92.039062 148.382812 C 92.085938 148.519531 92.101562 148.644531 92.136719 148.78125 L 92.1875 148.925781 L 92.207031 149.046875 C 92.242188 149.21875 92.222656 149.148438 92.332031 149.316406 L 92.316406 149.449219 C 92.300781 149.628906 92.320312 149.648438 92.382812 149.804688 C 92.550781 150.238281 92.421875 150.726562 92.625 151.09375 C 92.820312 151.433594 92.738281 152.050781 92.683594 152.421875 L 92.558594 152.414062 C 92.589844 151.832031 92.40625 151.179688 92.292969 150.609375 C 91.84375 148.382812 91.050781 146.308594 90.5 144.121094 Z M 90.5 144.121094 "/>
<path style=" stroke:none;fill-rule:nonzero;fill:url(#linear3);" d="M 56.394531 152.167969 L 56.542969 152.105469 C 56.65625 152.253906 56.6875 152.246094 56.6875 152.441406 C 56.835938 152.625 56.835938 152.617188 56.882812 152.832031 C 56.929688 153.035156 57.148438 153.363281 57.269531 153.535156 C 57.335938 153.628906 57.351562 153.699219 57.375 153.808594 L 57.445312 153.875 C 57.570312 154.003906 57.621094 154.148438 57.671875 154.320312 C 57.71875 154.476562 57.789062 154.53125 57.910156 154.640625 L 57.925781 154.75 C 57.960938 154.921875 58.015625 154.9375 58.105469 155.078125 L 58.277344 155.394531 C 58.371094 155.574219 58.453125 155.707031 58.59375 155.851562 C 58.703125 155.960938 58.894531 156.296875 58.984375 156.445312 L 59.03125 156.59375 C 59.121094 156.796875 59.316406 157.042969 59.449219 157.226562 L 59.617188 157.375 L 59.617188 157.519531 C 59.730469 157.726562 59.820312 157.820312 60.007812 157.960938 L 60.007812 158.058594 C 60.238281 158.058594 60.328125 158.105469 60.511719 157.960938 C 60.921875 157.632812 62.203125 157.757812 62.746094 157.765625 L 62.890625 157.667969 C 63.207031 157.667969 64.109375 157.765625 64.304688 157.570312 L 64.429688 157.691406 L 64.550781 157.570312 C 64.777344 157.570312 65.335938 157.628906 65.503906 157.519531 L 65.625 157.617188 L 65.773438 157.472656 L 65.917969 157.570312 C 66.136719 157.570312 66.34375 157.628906 66.503906 157.472656 L 66.675781 157.570312 L 66.796875 157.472656 C 67.011719 157.472656 67.125 157.53125 67.285156 157.375 C 67.515625 157.375 67.574219 157.410156 67.773438 157.277344 C 68.003906 157.277344 68.0625 157.3125 68.261719 157.179688 C 68.46875 157.179688 68.46875 157.203125 68.652344 157.082031 L 69.117188 157.054688 L 68.898438 156.957031 L 68.871094 156.835938 C 69.527344 156.652344 71.023438 156.722656 71.679688 156.886719 L 72.3125 156.886719 L 72.4375 157.105469 L 72.214844 157.152344 L 72.265625 157.277344 L 72.507812 157.277344 L 72.609375 157.375 C 72.738281 157.375 72.875 157.332031 73 157.375 C 73.222656 157.449219 73.015625 157.570312 73.390625 157.570312 L 73.484375 157.667969 L 73.679688 157.667969 L 73.78125 157.765625 L 73.882812 157.78125 C 74.054688 157.8125 74.15625 157.898438 74.316406 157.960938 L 74.488281 158.007812 L 74.601562 158.058594 C 74.738281 158.121094 74.671875 158.105469 74.828125 158.105469 L 74.925781 158.203125 C 75.15625 158.269531 75.292969 158.308594 75.488281 158.449219 C 75.570312 158.449219 75.867188 158.417969 75.929688 158.449219 C 76.007812 158.488281 76.039062 158.605469 76.125 158.644531 C 76.355469 158.742188 76.585938 158.519531 76.804688 158.742188 C 77.058594 158.742188 77.226562 158.695312 77.441406 158.839844 C 77.941406 158.839844 79.324219 158.695312 79.6875 158.9375 L 79.796875 158.941406 C 80.199219 158.960938 80.519531 159.054688 80.902344 159.136719 C 82.5 159.496094 83.996094 160.183594 85.625 160.507812 C 87.605469 160.898438 89.527344 160.785156 91.503906 160.988281 L 91.75 160.988281 L 91.835938 161.078125 C 91.972656 161.214844 91.917969 161.164062 92.089844 161.28125 L 92.140625 161.132812 L 92.300781 160.925781 L 92.617188 160.429688 C 92.449219 161.605469 92.0625 162.8125 91.660156 163.925781 C 91.425781 164.570312 91.210938 165.230469 90.828125 165.804688 C 90.515625 166.273438 90.109375 166.644531 89.695312 167.023438 L 89.671875 166.820312 C 89.871094 166.710938 89.875 166.761719 89.941406 166.527344 C 90.203125 166.285156 90.445312 166.082031 90.625 165.773438 L 90.824219 165.480469 C 90.929688 165.320312 90.90625 165.292969 90.96875 165.136719 L 91.113281 164.84375 L 91.210938 164.601562 C 91.136719 164.449219 91.191406 164.523438 91.015625 164.402344 C 90.738281 164.402344 90.125 164.316406 89.941406 164.5 L 89.847656 164.453125 C 89.652344 164.375 89.460938 164.394531 89.257812 164.40625 L 89.160156 164.5 L 89.011719 164.40625 L 88.867188 164.5 C 88.660156 164.5 88.660156 164.476562 88.476562 164.597656 C 88.234375 164.597656 88.097656 164.558594 87.890625 164.695312 C 87.683594 164.679688 87.414062 164.625 87.230469 164.746094 L 87.109375 164.648438 L 86.960938 164.792969 L 86.867188 164.648438 L 86.746094 164.675781 C 86.488281 164.714844 86.175781 164.714844 85.9375 164.601562 L 85.847656 164.648438 C 85.578125 164.753906 85.199219 164.703125 84.910156 164.703125 C 84.164062 164.703125 83.414062 164.699219 82.664062 164.695312 L 82.519531 164.597656 C 82.257812 164.597656 82.058594 164.648438 81.835938 164.503906 L 81.761719 164.550781 L 81.566406 164.476562 L 81.46875 164.550781 L 81.347656 164.453125 L 81.203125 164.597656 L 80.882812 164.378906 L 80.785156 164.453125 L 80.664062 164.378906 L 80.421875 164.402344 L 80.320312 164.257812 L 80.183594 164.285156 C 79.894531 164.332031 80.160156 164.304688 79.882812 164.257812 L 79.734375 164.257812 C 79.5 164.25 79.335938 164.230469 79.125 164.109375 L 78.785156 164.160156 C 78.613281 164.171875 78.535156 164.140625 78.367188 164.207031 C 77.957031 163.796875 77.484375 164.203125 77.050781 163.914062 C 76.808594 163.914062 76.671875 163.957031 76.464844 163.816406 C 76.144531 163.816406 75.539062 163.914062 75.316406 163.695312 L 75.195312 163.816406 L 75.023438 163.71875 L 74.953125 163.816406 L 74.804688 163.71875 C 74.605469 163.71875 74.601562 163.753906 74.4375 163.621094 L 74.339844 163.671875 C 74.195312 163.636719 74.1875 163.601562 74.046875 163.671875 L 73.960938 163.621094 C 73.730469 163.507812 73.988281 163.628906 73.707031 163.574219 L 73.609375 163.523438 C 73.464844 163.5625 73.453125 163.59375 73.316406 163.523438 C 73.171875 163.5625 73.160156 163.59375 73.023438 163.523438 L 72.828125 163.574219 L 72.730469 163.5 C 72.53125 163.53125 72.605469 163.492188 72.484375 163.574219 L 72.363281 163.476562 L 72.21875 163.621094 L 72.070312 163.476562 C 71.9375 163.609375 71.976562 163.621094 71.777344 163.625 L 71.726562 163.71875 L 71.582031 163.621094 L 71.460938 163.671875 L 71.363281 163.621094 C 71.21875 163.660156 71.207031 163.691406 71.070312 163.621094 C 70.898438 163.664062 70.929688 163.652344 70.777344 163.621094 L 70.605469 163.625 L 70.605469 163.769531 C 70.480469 163.769531 70.550781 163.785156 70.410156 163.671875 L 70.265625 163.816406 L 70.117188 163.671875 L 69.96875 163.816406 L 69.824219 163.671875 L 69.679688 163.816406 L 69.53125 163.671875 C 69.203125 163.914062 68.789062 163.839844 68.386719 163.839844 C 68.210938 163.839844 68.046875 163.863281 67.894531 163.964844 L 67.796875 163.964844 L 67.699219 164.039062 L 67.597656 164.035156 C 67.363281 164.054688 67.183594 164.1875 66.980469 164.292969 C 66.8125 164.375 66.882812 164.355469 66.699219 164.355469 C 66.425781 164.523438 66.167969 164.675781 65.867188 164.796875 L 65.847656 164.933594 C 65.816406 165.125 65.84375 165.050781 65.746094 165.210938 L 65.804688 165.3125 C 65.847656 165.390625 65.867188 165.480469 65.917969 165.550781 L 66.160156 165.773438 L 66.164062 165.917969 L 66.242188 165.9375 C 66.511719 166.039062 67.464844 167.007812 67.589844 167.269531 L 67.617188 167.34375 L 67.558594 167.429688 L 67.15625 167.132812 L 66.84375 167.183594 C 66.378906 167.226562 65.449219 166.582031 65.035156 166.347656 C 61.320312 164.257812 57.480469 161.75 54.339844 158.867188 L 54.339844 158.695312 L 54.34375 158.496094 C 54.21875 158.304688 54.25 158.277344 54.246094 158.058594 C 54.4375 157.878906 54.660156 157.699219 54.777344 157.460938 L 54.832031 157.324219 L 54.980469 157.03125 C 55.066406 156.824219 55.082031 156.851562 55.273438 156.738281 L 55.273438 156.59375 C 55.472656 156.421875 55.597656 156.171875 55.613281 155.910156 L 55.617188 155.761719 C 55.699219 155.648438 55.757812 155.554688 55.808594 155.421875 L 55.90625 155.175781 L 56.003906 155.03125 C 55.988281 154.855469 55.992188 154.792969 56.074219 154.632812 C 56.15625 154.476562 56.15625 154.515625 56.199219 154.347656 C 56.253906 154.140625 56.28125 154 56.394531 153.808594 C 56.558594 153.539062 56.398438 153.265625 56.542969 153.050781 C 56.636719 153.179688 56.730469 153.300781 56.804688 153.441406 L 56.847656 153.527344 L 56.996094 153.5 C 57.019531 153.4375 56.46875 152.332031 56.394531 152.167969 Z M 56.394531 152.167969 "/>
<path style=" stroke:none;fill-rule:nonzero;fill:rgb(53.72549%,93.333333%,78.039216%);fill-opacity:1;" d="M 54.339844 158.867188 L 54.339844 158.695312 L 54.34375 158.496094 C 54.21875 158.304688 54.25 158.277344 54.246094 158.058594 C 54.4375 157.878906 54.660156 157.699219 54.777344 157.460938 L 54.832031 157.324219 L 54.980469 157.03125 C 55.066406 156.824219 55.082031 156.851562 55.273438 156.738281 L 55.273438 156.59375 C 55.472656 156.421875 55.597656 156.171875 55.613281 155.910156 L 55.617188 155.761719 C 55.699219 155.648438 55.757812 155.554688 55.808594 155.421875 L 55.90625 155.175781 L 56.003906 155.03125 C 55.988281 154.855469 55.992188 154.792969 56.074219 154.632812 C 56.15625 154.476562 56.15625 154.515625 56.199219 154.347656 C 56.253906 154.140625 56.28125 154 56.394531 153.808594 C 56.558594 153.539062 56.398438 153.265625 56.542969 153.050781 C 56.636719 153.179688 56.730469 153.300781 56.804688 153.441406 L 56.847656 153.527344 L 56.996094 153.5 C 57.605469 154.453125 58.097656 155.476562 58.703125 156.433594 C 61.15625 160.300781 63.894531 163.914062 67.15625 167.132812 L 66.84375 167.183594 C 66.378906 167.226562 65.449219 166.582031 65.035156 166.347656 C 61.320312 164.257812 57.480469 161.75 54.339844 158.867188 Z M 54.339844 158.867188 "/>
<path style=" stroke:none;fill-rule:nonzero;fill:rgb(54.509804%,18.431373%,72.54902%);fill-opacity:1;" d="M 121.367188 130.75 C 122.851562 131.976562 124.183594 133.621094 125.515625 135.015625 C 126.636719 136.195312 127.96875 137.378906 128.976562 138.648438 C 129.804688 139.390625 130.558594 140.226562 131.347656 141.011719 C 132.886719 142.539062 134.433594 144.0625 135.996094 145.566406 C 138.894531 148.359375 141.804688 151.125 144.667969 153.953125 C 145.210938 154.488281 145.753906 155.023438 146.300781 155.558594 C 146.585938 155.839844 146.960938 156.136719 147.179688 156.472656 C 145.515625 158.066406 143.839844 159.683594 142.035156 161.125 C 136.019531 165.921875 128.78125 169.71875 121.460938 172.0625 C 121.042969 171.355469 120.160156 170.742188 119.542969 170.191406 C 117.835938 168.660156 116.078125 167.183594 114.367188 165.652344 C 111.730469 163.285156 109.167969 160.839844 106.535156 158.46875 C 105.214844 157.519531 104.023438 156.21875 102.8125 155.128906 C 101.320312 153.773438 99.746094 152.476562 98.3125 151.058594 C 98.277344 150.949219 98.253906 150.859375 98.179688 150.769531 C 97.972656 150.535156 97.804688 150.449219 97.800781 150.121094 L 98 150.046875 L 98.070312 149.902344 L 98.144531 149.78125 L 98.144531 149.660156 C 98.453125 149.65625 98.386719 149.304688 98.730469 149.21875 C 98.761719 149.074219 98.792969 148.941406 98.925781 148.851562 C 99.109375 148.730469 99.101562 148.726562 99.21875 148.535156 C 99.445312 148.460938 99.546875 148.3125 99.707031 148.144531 L 99.828125 148.144531 L 99.902344 148.097656 C 100.101562 148.09375 100.0625 148.078125 100.195312 147.949219 L 100.195312 147.804688 L 100.34375 147.800781 L 100.488281 147.609375 L 100.632812 147.605469 C 100.714844 147.441406 100.738281 147.421875 100.878906 147.316406 L 101.023438 147.3125 L 101.246094 147.167969 C 101.53125 147.015625 101.832031 146.839844 102.09375 146.644531 C 102.203125 146.5625 102.214844 146.582031 102.34375 146.582031 L 102.390625 146.4375 C 102.53125 146.386719 102.640625 146.335938 102.765625 146.257812 L 102.90625 146.167969 C 103.0625 146.074219 103.195312 146.023438 103.335938 145.898438 C 103.488281 145.761719 103.394531 145.832031 103.570312 145.71875 L 103.710938 145.628906 C 103.882812 145.507812 104.082031 145.308594 104.296875 145.265625 L 104.445312 145.261719 C 104.648438 144.945312 104.859375 144.839844 105.175781 144.652344 C 105.40625 144.691406 105.414062 144.496094 105.664062 144.433594 L 105.859375 144.238281 C 106.167969 144.054688 106.347656 143.8125 106.628906 143.585938 L 108.054688 142.433594 L 108.15625 142.527344 L 108.277344 142.382812 C 108.339844 142.332031 108.421875 142.316406 108.488281 142.269531 L 108.863281 141.992188 L 108.984375 141.941406 C 109.191406 141.828125 109.429688 141.679688 109.628906 141.546875 L 110.15625 141.210938 C 110.3125 141.128906 110.457031 141.0625 110.605469 140.960938 L 111.132812 140.625 C 111.347656 140.53125 111.394531 140.4375 111.546875 140.257812 L 111.765625 140.28125 C 111.847656 140.117188 111.871094 140.097656 112.011719 139.992188 L 112.15625 139.988281 L 112.304688 139.796875 L 112.453125 139.792969 L 112.695312 139.550781 C 112.996094 139.359375 112.710938 139.636719 112.933594 139.417969 C 113.082031 139.269531 113.195312 139.125 113.378906 139.015625 L 113.476562 138.964844 L 113.476562 138.820312 C 113.820312 138.527344 114.207031 138.191406 114.476562 137.832031 L 115.171875 136.964844 C 115.402344 136.601562 115.679688 136.199219 115.964844 135.882812 L 116.113281 135.71875 C 116.328125 135.34375 116.800781 135.117188 116.992188 134.765625 C 117.183594 134.414062 117.515625 134.109375 117.835938 133.855469 L 117.921875 133.789062 C 118.015625 133.707031 118.046875 133.652344 118.164062 133.59375 L 118.261719 133.550781 C 118.5 133.410156 118.3125 133.488281 118.527344 133.40625 L 118.847656 133.269531 L 118.992188 133.167969 C 119.128906 133.09375 119.15625 133.140625 119.285156 133.011719 C 119.417969 132.878906 119.34375 132.933594 119.511719 132.832031 L 119.628906 132.765625 L 120.117188 132.324219 L 120.265625 132.324219 C 120.382812 132.175781 120.433594 132.128906 120.605469 132.03125 L 120.75 132.03125 L 120.898438 131.835938 C 121.191406 131.765625 121.324219 131.644531 121.53125 131.445312 C 121.535156 131.15625 121.503906 131.167969 121.308594 130.953125 Z M 121.367188 130.75 "/>
<path style=" stroke:none;fill-rule:nonzero;fill:rgb(29.803922%,28.235294%,70.980392%);fill-opacity:1;" d="M 121.367188 130.75 C 122.851562 131.976562 124.183594 133.621094 125.515625 135.015625 C 126.636719 136.195312 127.96875 137.378906 128.976562 138.648438 C 128.871094 138.632812 128.757812 138.648438 128.664062 138.601562 C 128.457031 138.492188 127.691406 137.691406 127.5625 137.5 L 127.492188 137.351562 L 127.195312 137.257812 L 127.148438 137.5 L 126.953125 137.550781 L 126.953125 137.695312 L 126.757812 137.71875 C 126.546875 137.753906 126.4375 137.875 126.269531 137.988281 L 126.136719 138.0625 C 125.980469 138.15625 126.042969 138.109375 125.929688 138.28125 L 125.929688 138.378906 L 125.730469 138.332031 C 125.632812 138.453125 125.539062 138.511719 125.539062 138.671875 L 125.339844 138.722656 L 125.316406 138.867188 L 125.242188 139.011719 L 125.097656 139.015625 L 125.097656 139.160156 L 124.902344 139.210938 L 124.902344 139.355469 L 124.707031 139.40625 L 124.644531 139.511719 C 124.53125 139.699219 124.445312 139.820312 124.265625 139.941406 C 124.148438 140.019531 124.117188 140.140625 124.023438 140.234375 L 123.875 140.332031 C 123.761719 140.417969 123.726562 140.527344 123.632812 140.625 L 123.484375 140.722656 C 123.371094 140.808594 123.335938 140.917969 123.242188 141.015625 L 123.09375 141.113281 L 122.949219 141.257812 L 122.875 141.308594 L 122.804688 141.453125 L 122.65625 141.457031 L 122.65625 141.601562 L 122.414062 141.648438 L 122.363281 141.796875 C 122.199219 141.839844 122.203125 141.828125 122.070312 141.941406 L 121.996094 141.992188 L 121.921875 142.136719 L 121.777344 142.140625 L 121.632812 142.332031 L 121.484375 142.238281 L 121.484375 142.382812 L 121.386719 142.382812 L 121.335938 142.433594 L 121.191406 142.503906 C 121.105469 142.5625 121.089844 142.632812 121.046875 142.722656 L 120.921875 142.601562 L 120.75 142.820312 L 120.605469 142.824219 L 120.605469 142.96875 C 120.492188 142.96875 120.550781 142.984375 120.433594 142.894531 L 120.410156 143.066406 L 120.265625 143.066406 C 120.058594 143.113281 119.992188 143.253906 119.875 143.40625 L 119.726562 143.410156 L 119.726562 143.554688 L 119.53125 143.605469 L 119.53125 143.75 C 119.417969 143.75 119.476562 143.765625 119.359375 143.675781 C 119.210938 143.824219 119.140625 143.824219 119.140625 144.042969 L 118.992188 144.1875 L 118.871094 144.066406 L 118.847656 144.238281 L 118.703125 144.238281 C 118.535156 144.277344 118.464844 144.367188 118.359375 144.484375 L 118.359375 144.628906 C 118.246094 144.628906 118.304688 144.644531 118.1875 144.554688 L 118.164062 144.726562 C 117.984375 144.832031 117.9375 144.8125 117.871094 145.019531 L 117.773438 145.058594 C 117.648438 145.117188 117.542969 145.183594 117.429688 145.265625 L 117.382812 145.410156 L 117.234375 145.410156 C 117.105469 145.570312 117.09375 145.636719 116.894531 145.703125 L 116.820312 145.800781 C 116.71875 145.914062 116.761719 145.898438 116.648438 145.898438 L 116.554688 146.042969 L 116.453125 145.949219 L 116.40625 146.09375 C 116.210938 146.195312 115.996094 146.300781 115.796875 146.386719 L 115.625 146.4375 L 115.332031 146.582031 L 115.164062 146.664062 C 115.015625 146.746094 114.96875 146.78125 114.890625 146.921875 L 114.746094 146.925781 L 114.648438 146.996094 C 114.390625 147.167969 114.675781 146.972656 114.355469 147.121094 L 114.257812 147.191406 C 114.042969 147.335938 114.234375 147.203125 113.964844 147.316406 L 113.71875 147.460938 L 113.671875 147.65625 C 113.558594 147.65625 113.617188 147.671875 113.5 147.582031 C 113.34375 147.738281 113.378906 147.648438 113.378906 147.851562 L 113.183594 147.902344 L 113.039062 148.191406 L 112.890625 148.195312 L 112.742188 148.484375 L 112.5 148.460938 L 112.441406 148.585938 C 112.347656 148.753906 112.269531 148.796875 112.132812 148.925781 L 111.960938 149.121094 L 111.84375 149.257812 C 111.742188 149.375 111.6875 149.464844 111.613281 149.59375 C 111.523438 149.757812 111.488281 149.777344 111.375 149.902344 C 111.191406 150.105469 111.058594 150.265625 110.839844 150.441406 L 110.839844 150.585938 C 110.726562 150.804688 110.605469 150.914062 110.429688 151.074219 C 110.316406 151.175781 110.273438 151.28125 110.203125 151.414062 L 110.058594 151.417969 L 109.984375 151.5625 L 109.914062 151.660156 L 109.863281 151.855469 C 109.730469 151.984375 109.769531 152 109.570312 152.003906 L 109.570312 152.148438 L 109.476562 152.210938 C 109.269531 152.367188 109.476562 152.207031 109.277344 152.441406 L 109.082031 152.585938 L 108.957031 152.691406 C 108.589844 152.984375 109.101562 152.582031 108.691406 152.855469 C 108.605469 152.914062 108.589844 152.984375 108.546875 153.074219 C 108.46875 153.101562 108.386719 153.125 108.308594 153.144531 C 108.109375 153.195312 107.921875 153.316406 107.71875 153.386719 C 107.324219 153.527344 107.042969 153.863281 106.648438 154.007812 C 106.5 154.0625 106.421875 154.15625 106.296875 154.25 L 106.152344 154.34375 L 105.554688 154.820312 C 105.308594 155.015625 105 155.246094 104.882812 155.542969 C 104.789062 155.777344 104.671875 155.929688 104.492188 156.105469 C 104.554688 156.511719 105.050781 157.054688 105.421875 157.277344 L 105.566406 157.324219 C 105.800781 157.453125 106.457031 158.21875 106.535156 158.46875 C 105.214844 157.519531 104.023438 156.21875 102.8125 155.128906 C 101.320312 153.773438 99.746094 152.476562 98.3125 151.058594 C 98.277344 150.949219 98.253906 150.859375 98.179688 150.769531 C 97.972656 150.535156 97.804688 150.449219 97.800781 150.121094 L 98 150.046875 L 98.070312 149.902344 L 98.144531 149.78125 L 98.144531 149.660156 C 98.453125 149.65625 98.386719 149.304688 98.730469 149.21875 C 98.761719 149.074219 98.792969 148.941406 98.925781 148.851562 C 99.109375 148.730469 99.101562 148.726562 99.21875 148.535156 C 99.445312 148.460938 99.546875 148.3125 99.707031 148.144531 L 99.828125 148.144531 L 99.902344 148.097656 C 100.101562 148.09375 100.0625 148.078125 100.195312 147.949219 L 100.195312 147.804688 L 100.34375 147.800781 L 100.488281 147.609375 L 100.632812 147.605469 C 100.714844 147.441406 100.738281 147.421875 100.878906 147.316406 L 101.023438 147.3125 L 101.246094 147.167969 C 101.53125 147.015625 101.832031 146.839844 102.09375 146.644531 C 102.203125 146.5625 102.214844 146.582031 102.34375 146.582031 L 102.390625 146.4375 C 102.53125 146.386719 102.640625 146.335938 102.765625 146.257812 L 102.90625 146.167969 C 103.0625 146.074219 103.195312 146.023438 103.335938 145.898438 C 103.488281 145.761719 103.394531 145.832031 103.570312 145.71875 L 103.710938 145.628906 C 103.882812 145.507812 104.082031 145.308594 104.296875 145.265625 L 104.445312 145.261719 C 104.648438 144.945312 104.859375 144.839844 105.175781 144.652344 C 105.40625 144.691406 105.414062 144.496094 105.664062 144.433594 L 105.859375 144.238281 C 106.167969 144.054688 106.347656 143.8125 106.628906 143.585938 L 108.054688 142.433594 L 108.15625 142.527344 L 108.277344 142.382812 C 108.339844 142.332031 108.421875 142.316406 108.488281 142.269531 L 108.863281 141.992188 L 108.984375 141.941406 C 109.191406 141.828125 109.429688 141.679688 109.628906 141.546875 L 110.15625 141.210938 C 110.3125 141.128906 110.457031 141.0625 110.605469 140.960938 L 111.132812 140.625 C 111.347656 140.53125 111.394531 140.4375 111.546875 140.257812 L 111.765625 140.28125 C 111.847656 140.117188 111.871094 140.097656 112.011719 139.992188 L 112.15625 139.988281 L 112.304688 139.796875 L 112.453125 139.792969 L 112.695312 139.550781 C 112.996094 139.359375 112.710938 139.636719 112.933594 139.417969 C 113.082031 139.269531 113.195312 139.125 113.378906 139.015625 L 113.476562 138.964844 L 113.476562 138.820312 C 113.820312 138.527344 114.207031 138.191406 114.476562 137.832031 L 115.171875 136.964844 C 115.402344 136.601562 115.679688 136.199219 115.964844 135.882812 L 116.113281 135.71875 C 116.328125 135.34375 116.800781 135.117188 116.992188 134.765625 C 117.183594 134.414062 117.515625 134.109375 117.835938 133.855469 L 117.921875 133.789062 C 118.015625 133.707031 118.046875 133.652344 118.164062 133.59375 L 118.261719 133.550781 C 118.5 133.410156 118.3125 133.488281 118.527344 133.40625 L 118.847656 133.269531 L 118.992188 133.167969 C 119.128906 133.09375 119.15625 133.140625 119.285156 133.011719 C 119.417969 132.878906 119.34375 132.933594 119.511719 132.832031 L 119.628906 132.765625 L 120.117188 132.324219 L 120.265625 132.324219 C 120.382812 132.175781 120.433594 132.128906 120.605469 132.03125 L 120.75 132.03125 L 120.898438 131.835938 C 121.191406 131.765625 121.324219 131.644531 121.53125 131.445312 C 121.535156 131.15625 121.503906 131.167969 121.308594 130.953125 Z M 121.367188 130.75 "/>
<path style=" stroke:none;fill-rule:nonzero;fill:rgb(20.784314%,95.294118%,70.588235%);fill-opacity:1;" d="M 56.238281 124.429688 L 56.40625 124.363281 C 57.28125 123.988281 58.015625 123.390625 58.933594 123.042969 C 62.984375 121.519531 67.890625 121.519531 72.035156 122.6875 C 73.078125 122.980469 74.039062 123.441406 75.0625 123.78125 C 75.601562 123.960938 76.152344 124.234375 76.648438 124.511719 C 76.816406 124.605469 77.261719 124.921875 77.441406 124.9375 C 77.53125 124.945312 77.691406 124.898438 77.789062 124.886719 C 79.132812 125.921875 80.355469 127.34375 81.480469 128.613281 C 85.292969 133.296875 88.324219 138.476562 90.5 144.121094 C 91.050781 146.308594 91.84375 148.382812 92.292969 150.609375 C 92.40625 151.179688 92.589844 151.832031 92.558594 152.414062 L 92.683594 152.421875 C 92.96875 154.929688 93.371094 157.980469 92.617188 160.429688 L 92.300781 160.925781 L 92.140625 161.132812 L 92.089844 161.28125 C 91.917969 161.164062 91.972656 161.214844 91.835938 161.078125 L 91.746094 160.988281 L 91.503906 160.988281 C 89.527344 160.785156 87.605469 160.898438 85.621094 160.507812 C 83.996094 160.183594 82.496094 159.492188 80.902344 159.136719 C 80.519531 159.054688 80.199219 158.960938 79.796875 158.941406 L 79.6875 158.9375 C 79.324219 158.695312 77.941406 158.839844 77.441406 158.839844 C 77.226562 158.695312 77.058594 158.742188 76.804688 158.742188 C 76.585938 158.519531 76.355469 158.742188 76.121094 158.644531 C 76.039062 158.605469 76.007812 158.488281 75.925781 158.449219 C 75.867188 158.417969 75.570312 158.449219 75.488281 158.449219 C 75.292969 158.308594 75.15625 158.269531 74.925781 158.203125 L 74.828125 158.105469 C 74.671875 158.105469 74.738281 158.121094 74.601562 158.058594 L 74.488281 158.007812 L 74.316406 157.960938 C 74.15625 157.898438 74.054688 157.8125 73.882812 157.78125 L 73.777344 157.765625 L 73.679688 157.667969 L 73.484375 157.667969 L 73.386719 157.570312 C 73.015625 157.570312 73.222656 157.449219 72.996094 157.375 C 72.875 157.332031 72.738281 157.375 72.605469 157.375 L 72.507812 157.277344 L 72.265625 157.277344 L 72.214844 157.152344 L 72.4375 157.105469 L 72.3125 156.886719 L 71.679688 156.886719 C 71.023438 156.722656 69.527344 156.652344 68.871094 156.835938 L 68.898438 156.957031 L 69.117188 157.054688 L 68.652344 157.082031 C 68.46875 157.203125 68.46875 157.179688 68.261719 157.179688 C 68.0625 157.3125 68.003906 157.277344 67.773438 157.277344 C 67.574219 157.410156 67.515625 157.375 67.285156 157.375 C 67.125 157.53125 67.011719 157.472656 66.796875 157.472656 L 66.675781 157.570312 L 66.503906 157.472656 C 66.34375 157.628906 66.136719 157.570312 65.917969 157.570312 L 65.769531 157.472656 L 65.625 157.617188 L 65.503906 157.519531 C 65.335938 157.628906 64.777344 157.570312 64.550781 157.570312 L 64.429688 157.691406 L 64.304688 157.570312 C 64.109375 157.765625 63.207031 157.667969 62.890625 157.667969 L 62.746094 157.765625 C 62.203125 157.757812 60.921875 157.632812 60.511719 157.960938 C 60.328125 158.105469 60.238281 158.058594 60.007812 158.058594 L 60.007812 157.960938 C 59.820312 157.820312 59.730469 157.726562 59.617188 157.519531 L 59.617188 157.375 L 59.449219 157.226562 C 59.316406 157.042969 59.121094 156.796875 59.03125 156.59375 L 58.984375 156.445312 C 58.894531 156.296875 58.703125 155.960938 58.59375 155.851562 C 58.449219 155.707031 58.371094 155.570312 58.277344 155.394531 L 58.105469 155.078125 C 58.015625 154.9375 57.960938 154.921875 57.925781 154.75 L 57.910156 154.640625 C 57.789062 154.53125 57.71875 154.476562 57.671875 154.320312 C 57.621094 154.148438 57.570312 154.003906 57.441406 153.875 L 57.371094 153.808594 C 57.351562 153.695312 57.335938 153.628906 57.269531 153.535156 C 57.148438 153.363281 56.929688 153.035156 56.882812 152.832031 C 56.835938 152.617188 56.835938 152.625 56.6875 152.441406 C 56.6875 152.246094 56.65625 152.253906 56.542969 152.105469 L 56.394531 152.167969 L 56.367188 152.160156 L 55.332031 149.902344 L 53.515625 144.867188 L 52.851562 142.503906 C 52.34375 139.882812 51.738281 137.3125 51.871094 134.617188 C 51.890625 134.234375 51.871094 133.667969 52.027344 133.316406 L 52.078125 133.210938 C 52.1875 132.691406 52.332031 132.367188 52.554688 131.871094 L 52.585938 131.617188 C 52.894531 129.347656 53.960938 126.324219 55.863281 124.890625 Z M 56.238281 124.429688 "/>
<path style=" stroke:none;fill-rule:nonzero;fill:rgb(30.196078%,77.254902%,71.372549%);fill-opacity:1;" d="M 52.554688 131.871094 L 52.585938 131.621094 C 52.894531 129.347656 53.960938 126.324219 55.863281 124.890625 L 55.941406 125.070312 L 55.320312 125.734375 C 55.273438 126.023438 55.164062 126.355469 55.332031 126.617188 C 55.382812 126.699219 55.40625 126.800781 55.46875 126.878906 L 55.613281 127.003906 L 55.515625 127.125 C 55.714844 127.34375 55.652344 127.527344 55.808594 127.6875 L 55.710938 127.808594 L 55.808594 127.929688 C 55.882812 128.0625 55.925781 128.265625 56.003906 128.417969 L 55.980469 128.589844 L 56.054688 128.6875 L 56.03125 128.832031 L 56.199219 128.957031 L 56.199219 129.101562 C 56.398438 129.347656 56.34375 129.632812 56.503906 129.789062 C 56.628906 129.917969 56.566406 129.839844 56.640625 130.003906 L 56.6875 130.101562 C 56.8125 130.34375 56.652344 130.019531 56.785156 130.371094 C 56.84375 130.523438 56.929688 130.652344 56.980469 130.8125 C 57.054688 131.027344 57.164062 131.160156 57.273438 131.347656 L 57.421875 131.640625 L 57.5 131.789062 C 57.570312 131.929688 57.5625 132.046875 57.617188 132.179688 L 57.714844 132.347656 L 57.714844 132.472656 C 57.742188 132.636719 57.855469 132.785156 57.957031 132.910156 L 57.933594 133 C 57.898438 133.140625 57.910156 133.085938 57.910156 133.253906 C 58.050781 133.394531 58.082031 133.3125 58.203125 133.398438 C 58.371094 133.519531 58.355469 133.804688 58.445312 133.984375 C 58.527344 134.148438 58.542969 134.335938 58.554688 134.515625 C 58.566406 134.707031 58.59375 134.777344 58.691406 134.9375 L 58.863281 134.886719 L 58.835938 135.15625 L 58.984375 135.207031 C 59.015625 135.386719 58.992188 135.453125 59.125 135.585938 C 59.265625 135.726562 59.207031 135.664062 59.324219 135.839844 L 59.394531 135.941406 L 59.691406 136.480469 C 59.832031 136.757812 60.199219 137.132812 60.253906 137.402344 L 60.328125 137.476562 L 60.351562 137.648438 C 60.414062 137.925781 60.582031 138.023438 60.789062 138.183594 C 60.898438 138.265625 60.984375 138.378906 61.066406 138.484375 C 61.28125 138.753906 61.667969 138.964844 61.667969 139.308594 L 61.816406 139.355469 C 61.910156 139.472656 61.964844 139.5625 62.03125 139.695312 C 62.113281 139.859375 62.207031 139.921875 62.304688 140.0625 L 62.363281 140.1875 C 62.4375 140.339844 62.511719 140.386719 62.644531 140.480469 L 62.644531 140.625 C 62.988281 140.796875 62.988281 140.992188 63.328125 141.164062 L 63.328125 141.308594 L 63.402344 141.40625 L 63.476562 141.652344 L 63.671875 141.699219 L 63.695312 141.894531 C 63.738281 142.050781 63.820312 142.085938 63.941406 142.164062 L 64.011719 142.042969 C 64.140625 142.234375 64.117188 142.128906 64.085938 142.359375 C 64.242188 142.515625 64.152344 142.480469 64.355469 142.480469 C 64.53125 142.71875 64.449219 142.925781 64.65625 143.09375 C 65.058594 143.421875 64.601562 143.023438 64.84375 143.335938 C 64.957031 143.484375 66.121094 144.484375 66.210938 144.484375 C 66.386719 144.683594 66.46875 144.796875 66.699219 144.921875 C 66.960938 145.0625 67.328125 145.414062 67.554688 145.621094 C 67.726562 145.78125 67.792969 145.746094 67.96875 145.851562 L 68.164062 146.046875 C 68.476562 146.304688 68.636719 146.160156 68.894531 146.484375 L 69.089844 146.4375 L 69.382812 146.777344 L 69.480469 146.632812 L 69.628906 146.925781 L 69.800781 146.949219 L 69.871094 146.828125 L 70.019531 147.121094 C 70.144531 147.121094 70.089844 147.136719 70.191406 147.070312 C 70.285156 147.199219 70.371094 147.324219 70.484375 147.4375 L 70.582031 147.363281 L 70.800781 147.558594 L 70.945312 147.511719 L 71.019531 147.65625 L 71.09375 147.753906 L 71.335938 147.707031 L 71.410156 147.851562 C 71.460938 147.933594 71.515625 147.980469 71.582031 148.046875 C 71.746094 148.046875 71.648438 148.050781 71.875 148.023438 L 72.011719 148.105469 C 72.34375 148.300781 71.988281 148.101562 72.339844 148.242188 C 72.515625 148.3125 72.660156 148.457031 72.851562 148.535156 L 74.195312 149.21875 L 74.363281 149.269531 C 74.496094 149.3125 74.59375 149.386719 74.707031 149.464844 L 74.753906 149.367188 L 74.851562 149.511719 C 75.164062 149.667969 75.460938 149.855469 75.804688 149.925781 C 75.976562 149.957031 75.90625 149.9375 76.074219 150.050781 L 76.21875 149.953125 L 76.414062 150.148438 L 76.511719 150.050781 L 76.707031 150.246094 L 76.804688 150.148438 L 76.894531 150.238281 C 77.039062 150.382812 77.085938 150.4375 77.292969 150.441406 L 77.441406 150.539062 L 77.585938 150.539062 L 77.832031 150.636719 L 78.003906 150.609375 C 78.226562 150.722656 78.367188 150.808594 78.613281 150.832031 C 78.90625 150.855469 79.207031 150.96875 79.492188 151.027344 L 79.785156 151.125 L 79.859375 151.074219 L 79.980469 151.171875 L 80.074219 151.175781 C 80.234375 151.195312 80.308594 151.289062 80.445312 151.320312 L 80.589844 151.320312 L 80.761719 151.417969 L 81.078125 151.367188 L 81.175781 151.441406 C 81.390625 151.5625 81.589844 151.546875 81.8125 151.585938 L 82.105469 151.710938 L 82.25 151.710938 L 82.421875 151.808594 L 82.59375 151.78125 C 82.777344 151.886719 82.757812 151.914062 82.984375 151.878906 L 83.105469 152.003906 L 83.421875 151.953125 C 83.527344 151.941406 83.519531 151.96875 83.636719 152.027344 C 83.9375 152.175781 83.640625 152.050781 83.933594 152.101562 L 84.082031 152.148438 C 84.414062 152.253906 84.773438 152.105469 85.058594 152.296875 C 85.371094 152.296875 85.773438 152.234375 86.035156 152.394531 L 86.207031 152.492188 L 86.304688 152.441406 L 86.5 152.515625 L 86.597656 152.441406 L 86.71875 152.539062 L 86.863281 152.394531 L 87.058594 152.589844 L 87.15625 152.492188 L 87.28125 152.589844 L 87.351562 152.492188 L 87.425781 152.636719 L 87.476562 152.710938 L 87.574219 152.636719 L 87.695312 152.734375 L 87.839844 152.589844 L 87.988281 152.734375 L 88.132812 152.589844 L 88.355469 152.808594 L 88.453125 152.734375 L 88.574219 152.832031 L 88.71875 152.6875 L 89.039062 152.90625 L 89.136719 152.832031 L 89.257812 152.929688 L 89.402344 152.785156 L 89.625 153.003906 L 89.746094 152.882812 C 89.953125 152.882812 89.953125 152.855469 90.136719 152.980469 C 90.378906 152.980469 90.515625 152.9375 90.722656 153.078125 L 90.90625 153.085938 C 91.058594 153.09375 91.167969 153.105469 91.308594 153.175781 L 91.414062 153.128906 C 91.546875 153.078125 91.660156 153.054688 91.796875 153.027344 C 91.988281 152.992188 92.277344 152.976562 92.382812 152.785156 L 92.433594 152.636719 L 92.558594 152.414062 L 92.683594 152.421875 C 92.96875 154.929688 93.371094 157.980469 92.617188 160.429688 L 92.300781 160.925781 L 92.140625 161.132812 L 92.089844 161.28125 C 91.917969 161.164062 91.972656 161.214844 91.835938 161.078125 L 91.746094 160.988281 L 91.503906 160.988281 C 89.527344 160.785156 87.605469 160.898438 85.621094 160.507812 C 83.996094 160.183594 82.496094 159.496094 80.902344 159.136719 C 80.519531 159.054688 80.199219 158.960938 79.796875 158.941406 L 79.6875 158.9375 C 79.324219 158.695312 77.941406 158.839844 77.441406 158.839844 C 77.226562 158.695312 77.058594 158.742188 76.804688 158.742188 C 76.585938 158.519531 76.355469 158.742188 76.121094 158.644531 C 76.039062 158.605469 76.007812 158.488281 75.925781 158.449219 C 75.867188 158.417969 75.570312 158.449219 75.488281 158.449219 C 75.292969 158.308594 75.15625 158.269531 74.925781 158.203125 L 74.828125 158.105469 C 74.671875 158.105469 74.738281 158.121094 74.601562 158.058594 L 74.488281 158.007812 L 74.316406 157.960938 C 74.15625 157.898438 74.054688 157.8125 73.882812 157.78125 L 73.777344 157.765625 L 73.679688 157.667969 L 73.484375 157.667969 L 73.386719 157.570312 C 73.015625 157.570312 73.222656 157.449219 72.996094 157.375 C 72.875 157.332031 72.738281 157.375 72.605469 157.375 L 72.507812 157.277344 L 72.265625 157.277344 L 72.214844 157.152344 L 72.4375 157.105469 L 72.3125 156.886719 L 71.679688 156.886719 C 71.023438 156.722656 69.527344 156.652344 68.871094 156.835938 L 68.898438 156.957031 L 69.117188 157.054688 L 68.652344 157.082031 C 68.46875 157.203125 68.46875 157.179688 68.261719 157.179688 C 68.0625 157.3125 68.003906 157.277344 67.773438 157.277344 C 67.574219 157.410156 67.515625 157.375 67.285156 157.375 C 67.125 157.53125 67.011719 157.472656 66.796875 157.472656 L 66.675781 157.570312 L 66.503906 157.472656 C 66.34375 157.628906 66.136719 157.570312 65.917969 157.570312 L 65.769531 157.472656 L 65.625 157.617188 L 65.503906 157.519531 C 65.335938 157.628906 64.777344 157.570312 64.550781 157.570312 L 64.429688 157.691406 L 64.304688 157.570312 C 64.109375 157.765625 63.207031 157.667969 62.890625 157.667969 L 62.746094 157.765625 C 62.203125 157.757812 60.921875 157.632812 60.511719 157.960938 C 60.328125 158.105469 60.238281 158.058594 60.007812 158.058594 L 60.007812 157.960938 C 59.820312 157.820312 59.730469 157.726562 59.617188 157.519531 L 59.617188 157.375 L 59.449219 157.226562 C 59.316406 157.042969 59.121094 156.796875 59.03125 156.59375 L 58.984375 156.445312 C 58.894531 156.296875 58.703125 155.960938 58.59375 155.851562 C 58.449219 155.707031 58.371094 155.574219 58.277344 155.394531 L 58.105469 155.078125 C 58.015625 154.9375 57.960938 154.921875 57.925781 154.75 L 57.910156 154.640625 C 57.789062 154.53125 57.71875 154.476562 57.671875 154.320312 C 57.621094 154.148438 57.570312 154.003906 57.441406 153.875 L 57.371094 153.808594 C 57.351562 153.699219 57.335938 153.628906 57.269531 153.535156 C 57.148438 153.363281 56.929688 153.035156 56.882812 152.832031 C 56.835938 152.617188 56.835938 152.625 56.6875 152.441406 C 56.6875 152.246094 56.65625 152.253906 56.542969 152.105469 L 56.394531 152.167969 L 56.367188 152.160156 L 55.332031 149.902344 L 53.515625 144.867188 L 52.851562 142.503906 C 52.34375 139.882812 51.738281 137.3125 51.871094 134.621094 C 51.890625 134.234375 51.871094 133.667969 52.027344 133.316406 L 52.078125 133.210938 C 52.1875 132.691406 52.332031 132.367188 52.554688 131.871094 Z M 52.554688 131.871094 "/>
<path style=" stroke:none;fill-rule:nonzero;fill:rgb(27.058824%,73.333333%,43.137255%);fill-opacity:1;" d="M 52.851562 142.503906 C 52.34375 139.882812 51.738281 137.3125 51.871094 134.621094 C 51.890625 134.234375 51.871094 133.667969 52.027344 133.316406 L 52.078125 133.210938 C 52.1875 132.691406 52.332031 132.367188 52.554688 131.871094 C 52.246094 134.605469 52.597656 137.261719 53.011719 139.960938 C 53.246094 141.507812 53.78125 143.320312 53.515625 144.867188 Z M 52.851562 142.503906 "/>
<path style=" stroke:none;fill-rule:nonzero;fill:url(#linear4);" d="M 77.789062 124.886719 L 40.488281 83.835938 L 73.925781 83.941406 C 75.277344 84.683594 76.445312 85.546875 77.621094 86.542969 C 78.246094 87.074219 78.832031 87.679688 79.472656 88.183594 C 79.882812 88.78125 80.554688 89.328125 81.070312 89.84375 C 81.648438 90.417969 82.238281 91.117188 82.882812 91.609375 C 85.558594 94.390625 88.324219 97.070312 91.050781 99.800781 C 94.476562 103.234375 97.859375 106.722656 101.257812 110.183594 C 102.703125 111.65625 104.167969 113.109375 105.625 114.570312 C 106.410156 115.355469 107.335938 116.15625 107.996094 117.050781 C 108.796875 117.769531 109.507812 118.617188 110.25 119.394531 C 111.324219 120.523438 112.433594 121.617188 113.535156 122.722656 C 115.378906 124.574219 117.21875 126.4375 119.035156 128.316406 C 119.804688 129.113281 120.679688 129.890625 121.367188 130.75 L 121.308594 130.953125 C 121.503906 131.167969 121.535156 131.15625 121.53125 131.445312 C 121.324219 131.644531 121.191406 131.765625 120.898438 131.835938 L 120.75 132.03125 L 120.605469 132.03125 C 120.433594 132.128906 120.382812 132.175781 120.261719 132.324219 L 120.117188 132.324219 L 119.628906 132.765625 L 119.511719 132.832031 C 119.34375 132.933594 119.417969 132.878906 119.285156 133.011719 C 119.15625 133.140625 119.128906 133.09375 118.992188 133.167969 L 118.847656 133.269531 L 118.527344 133.40625 C 118.3125 133.488281 118.5 133.410156 118.261719 133.550781 L 118.164062 133.59375 C 118.046875 133.652344 118.015625 133.707031 117.921875 133.789062 L 117.835938 133.855469 C 117.515625 134.109375 117.183594 134.414062 116.992188 134.765625 C 116.800781 135.117188 116.328125 135.34375 116.113281 135.71875 L 115.964844 135.882812 C 115.679688 136.199219 115.402344 136.601562 115.171875 136.964844 L 114.476562 137.832031 C 114.207031 138.191406 113.820312 138.527344 113.476562 138.820312 L 113.476562 138.964844 L 113.378906 139.015625 C 113.195312 139.125 113.082031 139.269531 112.933594 139.417969 C 112.710938 139.636719 112.996094 139.359375 112.695312 139.550781 L 112.449219 139.792969 L 112.304688 139.796875 L 112.15625 139.988281 L 112.011719 139.992188 C 111.871094 140.097656 111.847656 140.117188 111.765625 140.28125 L 111.546875 140.257812 C 111.394531 140.4375 111.347656 140.53125 111.132812 140.625 L 110.605469 140.960938 C 110.457031 141.0625 110.3125 141.128906 110.15625 141.210938 L 109.628906 141.546875 C 109.429688 141.679688 109.191406 141.828125 108.984375 141.941406 L 108.863281 141.992188 L 108.488281 142.269531 C 108.421875 142.316406 108.339844 142.332031 108.277344 142.382812 L 108.152344 142.527344 L 108.054688 142.433594 L 106.628906 143.585938 C 106.347656 143.8125 106.167969 144.054688 105.859375 144.238281 L 105.664062 144.433594 C 105.414062 144.496094 105.40625 144.691406 105.175781 144.652344 C 104.859375 144.839844 104.648438 144.945312 104.441406 145.261719 L 104.296875 145.265625 C 104.082031 145.308594 103.882812 145.507812 103.710938 145.628906 L 103.570312 145.71875 C 103.394531 145.832031 103.488281 145.761719 103.335938 145.898438 C 103.195312 146.023438 103.0625 146.074219 102.90625 146.167969 L 102.765625 146.257812 C 102.640625 146.335938 102.53125 146.386719 102.390625 146.4375 L 102.34375 146.582031 C 102.214844 146.582031 102.203125 146.5625 102.09375 146.644531 C 101.832031 146.839844 101.53125 147.015625 101.246094 147.167969 L 101.023438 147.3125 L 100.878906 147.316406 C 100.738281 147.421875 100.714844 147.441406 100.632812 147.605469 L 100.488281 147.609375 L 100.339844 147.800781 L 100.195312 147.804688 L 100.195312 147.949219 C 100.0625 148.078125 100.101562 148.09375 99.902344 148.097656 L 99.828125 148.144531 L 99.707031 148.144531 C 99.546875 148.3125 99.445312 148.460938 99.21875 148.535156 C 99.101562 148.726562 99.109375 148.730469 98.925781 148.851562 C 98.792969 148.941406 98.761719 149.074219 98.730469 149.21875 C 98.386719 149.304688 98.453125 149.65625 98.144531 149.660156 L 98.144531 149.78125 L 98.070312 149.902344 L 97.996094 150.046875 L 97.800781 150.121094 C 97.804688 150.449219 97.972656 150.535156 98.179688 150.769531 C 98.253906 150.859375 98.277344 150.949219 98.3125 151.058594 L 94.925781 148.089844 C 94.28125 147.40625 93.53125 146.789062 92.839844 146.144531 C 92.113281 145.460938 91.359375 144.632812 90.5 144.121094 C 88.324219 138.476562 85.292969 133.296875 81.480469 128.613281 C 80.355469 127.34375 79.132812 125.921875 77.789062 124.886719 Z M 77.789062 124.886719 "/>
<path style=" stroke:none;fill-rule:nonzero;fill:url(#linear5);" d="M 107.996094 117.050781 C 108.796875 117.769531 109.507812 118.617188 110.25 119.394531 C 111.324219 120.523438 112.433594 121.617188 113.535156 122.722656 C 115.382812 124.574219 117.21875 126.4375 119.035156 128.316406 C 119.804688 129.113281 120.679688 129.890625 121.367188 130.75 L 121.308594 130.953125 C 121.503906 131.167969 121.535156 131.15625 121.53125 131.445312 C 121.324219 131.644531 121.191406 131.765625 120.898438 131.835938 L 120.75 132.03125 L 120.605469 132.03125 C 120.433594 132.128906 120.382812 132.175781 120.265625 132.324219 L 120.117188 132.324219 L 119.628906 132.765625 L 119.511719 132.832031 C 119.34375 132.933594 119.417969 132.878906 119.285156 133.011719 C 119.15625 133.140625 119.128906 133.09375 118.992188 133.167969 L 118.847656 133.269531 L 118.527344 133.40625 C 118.3125 133.488281 118.5 133.410156 118.261719 133.550781 L 118.164062 133.59375 C 118.046875 133.652344 118.015625 133.707031 117.921875 133.789062 L 117.835938 133.855469 C 117.515625 134.109375 117.183594 134.414062 116.992188 134.765625 C 116.800781 135.117188 116.328125 135.34375 116.113281 135.71875 L 115.964844 135.882812 C 115.679688 136.199219 115.402344 136.601562 115.171875 136.964844 L 114.476562 137.832031 C 114.207031 138.191406 113.820312 138.527344 113.476562 138.820312 L 113.476562 138.964844 L 113.378906 139.015625 C 113.195312 139.125 113.082031 139.269531 112.933594 139.417969 C 112.710938 139.636719 112.996094 139.359375 112.695312 139.550781 L 112.453125 139.792969 L 112.304688 139.796875 L 112.15625 139.988281 L 112.011719 139.992188 C 111.871094 140.097656 111.847656 140.117188 111.765625 140.28125 L 111.546875 140.257812 C 111.394531 140.4375 111.347656 140.53125 111.132812 140.625 L 110.605469 140.960938 C 110.457031 141.0625 110.3125 141.128906 110.15625 141.210938 L 109.628906 141.546875 C 109.429688 141.679688 109.191406 141.828125 108.984375 141.941406 L 108.863281 141.992188 L 108.488281 142.269531 C 108.421875 142.316406 108.339844 142.332031 108.277344 142.382812 L 108.15625 142.527344 L 108.054688 142.433594 L 106.628906 143.585938 C 106.347656 143.8125 106.167969 144.054688 105.859375 144.238281 L 105.664062 144.433594 C 105.414062 144.496094 105.40625 144.691406 105.175781 144.652344 C 104.859375 144.839844 104.648438 144.945312 104.445312 145.261719 L 104.296875 145.265625 C 104.082031 145.308594 103.882812 145.507812 103.710938 145.628906 L 103.570312 145.71875 C 103.394531 145.832031 103.488281 145.761719 103.335938 145.898438 C 103.195312 146.023438 103.0625 146.074219 102.90625 146.167969 L 102.765625 146.257812 C 102.640625 146.335938 102.53125 146.386719 102.390625 146.4375 L 102.34375 146.582031 C 102.214844 146.582031 102.203125 146.5625 102.09375 146.644531 C 101.832031 146.839844 101.53125 147.015625 101.246094 147.167969 L 101.023438 147.3125 L 100.878906 147.316406 C 100.738281 147.421875 100.714844 147.441406 100.632812 147.605469 L 100.488281 147.609375 L 100.34375 147.800781 L 100.195312 147.804688 L 100.195312 147.949219 C 100.0625 148.078125 100.101562 148.09375 99.902344 148.097656 L 99.828125 148.144531 L 99.707031 148.144531 C 99.546875 148.3125 99.445312 148.460938 99.21875 148.535156 C 99.101562 148.726562 99.109375 148.730469 98.925781 148.851562 C 98.792969 148.941406 98.761719 149.074219 98.730469 149.21875 C 98.386719 149.304688 98.453125 149.65625 98.144531 149.660156 L 98.144531 149.78125 L 98.070312 149.902344 L 98 150.046875 L 97.800781 150.121094 C 97.804688 150.449219 97.972656 150.535156 98.179688 150.769531 C 98.253906 150.859375 98.277344 150.949219 98.3125 151.058594 L 94.925781 148.089844 C 94.28125 147.40625 93.53125 146.789062 92.84375 146.144531 C 92.113281 145.460938 91.359375 144.632812 90.5 144.121094 C 88.324219 138.476562 85.292969 133.296875 81.480469 128.613281 L 81.527344 128.445312 C 81.316406 128.25 81.265625 128.144531 81.152344 127.882812 C 81.25 127.652344 81.242188 127.488281 81.25 127.246094 C 81.324219 127.125 81.382812 127.058594 81.496094 126.96875 L 81.640625 126.855469 L 81.910156 126.636719 L 82.078125 126.5625 C 82.195312 126.492188 82.226562 126.414062 82.375 126.339844 L 82.519531 126.269531 C 82.707031 126.164062 82.851562 126.058594 83.054688 125.976562 L 83.300781 125.878906 C 83.488281 125.773438 83.632812 125.667969 83.835938 125.585938 C 83.984375 125.527344 84.113281 125.472656 84.257812 125.398438 C 84.445312 125.292969 84.460938 125.324219 84.667969 125.339844 L 84.789062 125.21875 L 84.914062 125.292969 L 84.984375 125.121094 C 85.253906 125.285156 85.773438 124.84375 86.105469 124.8125 C 86.285156 124.796875 86.3125 124.742188 86.449219 124.632812 L 86.546875 124.683594 L 86.644531 124.632812 C 86.789062 124.707031 87.003906 124.664062 87.15625 124.609375 L 87.328125 124.535156 L 87.453125 124.609375 L 87.621094 124.535156 L 87.792969 124.609375 L 88.109375 124.4375 L 88.234375 124.511719 L 88.402344 124.4375 C 88.628906 124.511719 88.679688 124.429688 88.890625 124.339844 L 89.015625 124.414062 L 89.183594 124.339844 L 89.28125 124.390625 C 89.648438 124.160156 90 124.328125 90.332031 124.121094 L 90.476562 124.023438 L 90.648438 124.097656 L 90.773438 124.023438 L 90.941406 124.097656 L 91.0625 124.023438 L 91.285156 124.097656 L 91.601562 123.925781 L 91.722656 124.023438 L 91.796875 123.976562 C 91.996094 123.972656 91.957031 123.957031 92.089844 123.828125 L 92.234375 123.972656 L 92.382812 123.828125 L 92.53125 123.972656 L 92.675781 123.828125 L 92.796875 123.925781 L 92.894531 123.851562 L 93.015625 123.972656 L 93.164062 123.925781 L 93.1875 123.753906 L 93.3125 123.875 L 93.457031 123.730469 L 93.601562 123.875 L 93.75 123.730469 L 93.871094 123.828125 L 93.945312 123.78125 C 94.144531 123.777344 94.105469 123.761719 94.238281 123.632812 L 94.382812 123.777344 L 94.53125 123.632812 L 94.679688 123.777344 L 94.824219 123.632812 L 94.96875 123.777344 L 95.117188 123.632812 L 95.238281 123.730469 C 95.355469 123.652344 95.480469 123.597656 95.605469 123.535156 L 95.726562 123.632812 C 95.84375 123.554688 95.96875 123.5 96.09375 123.4375 L 96.242188 123.582031 L 96.386719 123.4375 L 96.507812 123.535156 L 96.605469 123.460938 L 96.726562 123.582031 L 96.972656 123.484375 C 97.21875 123.351562 97.238281 123.453125 97.460938 123.386719 C 97.480469 123.382812 97.585938 123.253906 97.609375 123.242188 C 98.214844 122.953125 99.207031 123.117188 99.804688 122.804688 L 99.953125 122.707031 C 100.15625 122.714844 100.304688 122.714844 100.488281 122.609375 L 100.632812 122.511719 C 100.808594 122.527344 100.863281 122.519531 101.027344 122.441406 C 101.207031 122.347656 101.121094 122.371094 101.296875 122.335938 C 101.425781 122.3125 101.546875 122.285156 101.660156 122.21875 L 101.804688 122.121094 C 101.976562 122.136719 102.035156 122.132812 102.195312 122.054688 C 102.398438 121.949219 102.285156 121.992188 102.492188 121.921875 L 102.636719 121.875 L 102.929688 121.777344 C 103.070312 121.738281 103.136719 121.726562 103.273438 121.65625 L 103.417969 121.582031 C 103.664062 121.476562 103.851562 121.367188 104.0625 121.203125 L 104.199219 121.09375 L 104.34375 121.09375 L 104.445312 120.949219 L 104.589844 120.949219 L 104.6875 120.851562 L 104.785156 120.851562 L 104.882812 120.753906 L 104.980469 120.753906 L 105.175781 120.605469 C 105.4375 120.433594 105.636719 120.238281 105.859375 120.019531 L 106.007812 120.019531 L 106.007812 119.875 L 106.25 119.726562 C 106.382812 119.671875 106.421875 119.699219 106.554688 119.601562 C 106.671875 119.515625 106.597656 119.53125 106.714844 119.53125 L 106.882812 119.628906 L 107.007812 119.507812 C 107.109375 119.402344 107.203125 119.304688 107.320312 119.214844 L 107.960938 118.703125 L 108.15625 118.75 L 108.15625 118.605469 L 108.300781 118.507812 C 108.335938 118.355469 108.378906 118.203125 108.449219 118.066406 L 108.546875 117.894531 C 108.308594 117.664062 108.050781 117.433594 107.855469 117.164062 Z M 107.996094 117.050781 "/>
<path style=" stroke:none;fill-rule:nonzero;fill:url(#linear6);" d="M 43.941406 147.332031 C 43.808594 147.265625 43.714844 147.21875 43.601562 147.121094 C 43.15625 146.710938 42.769531 146.085938 42.417969 145.59375 C 41.585938 144.449219 40.808594 143.273438 40.035156 142.089844 C 33.640625 132.308594 29.257812 121.617188 28.097656 109.917969 C 27.015625 99 27.972656 87.492188 31.25 77.003906 C 32.859375 71.855469 35.207031 66.710938 37.90625 62.046875 C 39.535156 59.242188 41.203125 56.523438 43.261719 54.007812 C 43.859375 54.722656 44.621094 55.375 45.289062 56.027344 C 46.925781 57.621094 48.605469 59.175781 50.246094 60.765625 C 52.089844 62.554688 53.851562 64.425781 55.710938 66.199219 C 60.039062 70.339844 64.484375 74.355469 68.734375 78.578125 C 69.960938 79.792969 71.148438 81.039062 72.355469 82.273438 C 72.871094 82.804688 73.550781 83.308594 73.929688 83.941406 L 40.488281 83.835938 L 77.789062 124.886719 C 77.691406 124.898438 77.53125 124.945312 77.441406 124.9375 C 77.261719 124.921875 76.816406 124.605469 76.648438 124.511719 C 76.152344 124.234375 75.601562 123.960938 75.0625 123.78125 C 74.039062 123.441406 73.078125 122.980469 72.035156 122.6875 C 67.890625 121.519531 62.984375 121.519531 58.9375 123.042969 C 58.019531 123.390625 57.28125 123.988281 56.40625 124.363281 L 56.242188 124.429688 L 55.863281 124.890625 C 53.960938 126.324219 52.894531 129.347656 52.585938 131.621094 L 52.554688 131.871094 C 52.332031 132.367188 52.1875 132.691406 52.078125 133.210938 L 52.027344 133.316406 C 51.871094 133.667969 51.890625 134.234375 51.871094 134.621094 C 51.738281 137.3125 52.34375 139.882812 52.851562 142.503906 L 52.761719 142.367188 C 52.652344 142.195312 52.597656 142.039062 52.539062 141.847656 L 52.390625 141.75 L 52.269531 141.867188 C 51.949219 142.160156 51.601562 141.90625 51.367188 142.136719 C 51.132812 142.199219 50.894531 142.226562 50.671875 142.328125 C 50.507812 142.398438 50.625 142.351562 50.414062 142.398438 L 50.292969 142.433594 L 50.121094 142.40625 C 49.914062 142.507812 49.898438 142.542969 49.660156 142.53125 L 49.511719 142.628906 C 49.261719 142.628906 49.242188 142.609375 49.023438 142.726562 C 48.867188 142.808594 48.519531 142.886719 48.339844 142.945312 L 48.167969 142.96875 L 48.046875 143.042969 L 47.875 143.066406 L 47.753906 143.140625 L 47.582031 143.164062 C 47.527344 143.183594 47.410156 143.273438 47.363281 143.3125 C 47.238281 143.3125 47.292969 143.328125 47.191406 143.261719 L 46.996094 143.433594 L 46.925781 143.3125 L 46.730469 143.554688 L 46.535156 143.507812 L 46.433594 143.652344 L 46.238281 143.605469 C 46.042969 143.765625 45.867188 143.90625 45.644531 144.027344 C 45.476562 144.117188 45.390625 144.199219 45.261719 144.335938 L 45.140625 144.335938 C 44.757812 144.574219 44.023438 144.867188 43.773438 145.238281 C 43.683594 145.371094 43.765625 145.445312 43.621094 145.574219 C 43.503906 145.675781 43.542969 145.632812 43.476562 145.785156 Z M 43.941406 147.332031 "/>
<path style=" stroke:none;fill-rule:nonzero;fill:url(#linear7);" d="M 43.476562 145.785156 L 43.46875 145.78125 C 42.40625 141.964844 42.863281 138.535156 44.546875 134.992188 C 46.9375 129.953125 50.992188 126.300781 56.242188 124.429688 L 55.863281 124.890625 C 53.960938 126.324219 52.894531 129.347656 52.585938 131.617188 L 52.554688 131.871094 C 52.332031 132.367188 52.1875 132.691406 52.078125 133.210938 L 52.027344 133.316406 C 51.871094 133.667969 51.890625 134.234375 51.871094 134.617188 C 51.738281 137.3125 52.34375 139.882812 52.851562 142.503906 L 52.761719 142.367188 C 52.652344 142.195312 52.597656 142.039062 52.539062 141.84375 L 52.390625 141.75 L 52.269531 141.867188 C 51.949219 142.15625 51.601562 141.90625 51.367188 142.136719 C 51.132812 142.199219 50.894531 142.226562 50.671875 142.328125 C 50.507812 142.398438 50.625 142.351562 50.414062 142.398438 L 50.292969 142.429688 L 50.121094 142.40625 C 49.914062 142.507812 49.898438 142.542969 49.660156 142.53125 L 49.511719 142.628906 C 49.261719 142.628906 49.242188 142.609375 49.023438 142.726562 C 48.867188 142.804688 48.519531 142.886719 48.339844 142.945312 L 48.167969 142.96875 L 48.046875 143.042969 L 47.875 143.066406 L 47.753906 143.140625 L 47.582031 143.164062 C 47.527344 143.183594 47.410156 143.273438 47.363281 143.3125 C 47.238281 143.3125 47.292969 143.328125 47.191406 143.261719 L 46.996094 143.433594 L 46.925781 143.3125 L 46.730469 143.554688 L 46.535156 143.507812 L 46.433594 143.652344 L 46.238281 143.605469 C 46.042969 143.765625 45.867188 143.90625 45.644531 144.027344 C 45.476562 144.117188 45.390625 144.199219 45.261719 144.335938 L 45.140625 144.335938 C 44.757812 144.574219 44.023438 144.867188 43.773438 145.238281 C 43.683594 145.371094 43.765625 145.445312 43.621094 145.574219 C 43.503906 145.675781 43.542969 145.632812 43.476562 145.785156 Z M 43.476562 145.785156 "/>
<path style=" stroke:none;fill-rule:nonzero;fill:rgb(51.764706%,52.156863%,85.882353%);fill-opacity:1;" d="M 144.664062 41.992188 C 146.585938 43.410156 148.359375 45.109375 150.066406 46.773438 C 152.382812 49.035156 154.648438 51.445312 156.632812 54.003906 C 158.355469 56.222656 159.839844 58.597656 161.265625 61.011719 C 166.152344 69.285156 169.722656 78.378906 171.148438 87.914062 C 171.652344 91.300781 171.90625 94.777344 172.046875 98.203125 C 172.222656 102.589844 172.175781 107.03125 171.632812 111.398438 C 171.144531 115.328125 170.238281 119.304688 169.160156 123.113281 C 167.347656 129.523438 164.027344 135.882812 160.390625 141.441406 C 159.582031 142.671875 158.804688 143.953125 157.90625 145.121094 C 156.820312 144.011719 155.632812 143.003906 154.542969 141.894531 C 153.28125 140.609375 152.109375 139.238281 150.882812 137.917969 C 149.285156 136.199219 147.632812 134.523438 145.976562 132.859375 C 145.371094 132.253906 144.761719 131.65625 144.160156 131.046875 C 144.109375 130.992188 143.9375 130.855469 143.929688 130.769531 L 125.644531 112.988281 L 125.785156 112.878906 C 126.066406 112.683594 126.21875 112.207031 126.296875 111.867188 C 127.253906 107.765625 128.707031 103.8125 130.589844 100.050781 C 131.078125 99.074219 131.535156 98.050781 132.171875 97.160156 C 133.71875 95.027344 135.210938 92.773438 136.570312 90.511719 C 137.570312 88.859375 138.40625 87.125 139.535156 85.546875 C 140.671875 83.953125 142.03125 82.292969 143.394531 80.890625 C 144.316406 79.941406 145.324219 79.066406 146.21875 78.09375 L 146.304688 78 C 148.703125 75.988281 150.554688 73.804688 151.785156 70.898438 C 152.277344 69.738281 152.476562 68.484375 152.601562 67.238281 C 153.042969 62.90625 152.058594 58.945312 150.699219 54.882812 C 149.890625 52.464844 148.980469 50.121094 147.785156 47.867188 C 147.058594 46.5 146.324219 45.128906 145.554688 43.785156 C 145.324219 43.386719 144.878906 42.929688 144.703125 42.527344 C 144.65625 42.417969 144.671875 42.125 144.664062 41.992188 Z M 144.664062 41.992188 "/>
<path style=" stroke:none;fill-rule:nonzero;fill:rgb(80.784314%,53.333333%,95.294118%);fill-opacity:1;" d="M 143.929688 130.769531 L 144.042969 130.738281 L 144.582031 131.25 L 144.800781 131.46875 C 145.054688 131.675781 145.445312 131.921875 145.628906 132.203125 C 145.851562 132.539062 146.132812 132.757812 146.410156 133.058594 C 147.46875 134.191406 148.738281 135.214844 149.714844 136.40625 C 149.84375 136.566406 149.761719 136.484375 149.910156 136.632812 L 150.097656 136.816406 C 150.511719 137.289062 151.265625 137.839844 151.585938 138.355469 C 151.796875 138.695312 152.1875 138.917969 152.367188 139.234375 C 152.53125 139.519531 152.714844 139.6875 152.953125 139.917969 L 153.078125 139.796875 L 153.222656 139.84375 C 153.351562 139.867188 153.886719 139.472656 154.003906 139.355469 L 154.199219 139.308594 C 154.421875 139.195312 154.433594 139.210938 154.6875 139.210938 C 154.871094 139.085938 154.871094 139.113281 155.078125 139.113281 L 155.226562 139.015625 C 155.351562 139.019531 155.464844 139.019531 155.589844 138.992188 L 155.714844 138.964844 L 155.957031 138.914062 C 156.035156 138.878906 156.101562 138.816406 156.175781 138.769531 L 156.300781 138.769531 L 156.398438 138.625 L 156.59375 138.769531 L 156.664062 138.574219 L 156.761719 138.648438 L 156.8125 138.574219 L 156.886719 138.429688 L 157.082031 138.671875 L 157.152344 138.476562 L 157.25 138.550781 L 157.472656 138.332031 L 157.570312 138.574219 C 157.601562 138.324219 157.5625 138.4375 157.667969 138.234375 L 157.738281 138.355469 L 157.863281 138.234375 L 158.058594 138.378906 L 158.128906 138.183594 L 158.226562 138.257812 L 158.277344 138.183594 L 158.351562 138.039062 L 158.546875 138.28125 L 158.640625 138.039062 L 158.742188 138.183594 L 158.839844 137.941406 L 159.035156 138.183594 L 159.105469 137.988281 L 159.277344 137.9375 C 159.359375 137.902344 159.421875 137.839844 159.496094 137.792969 L 159.59375 137.867188 L 159.71875 137.746094 L 159.863281 137.792969 L 160.011719 137.648438 L 160.109375 137.792969 L 160.15625 137.597656 L 160.253906 137.597656 C 160.285156 137.757812 160.304688 137.796875 160.398438 137.9375 C 160.554688 137.886719 160.664062 137.832031 160.804688 137.738281 L 160.9375 137.648438 L 161.132812 137.792969 C 161.246094 137.625 161.214844 137.6875 161.285156 137.515625 L 161.328125 137.402344 L 161.476562 137.402344 L 161.523438 137.207031 L 161.671875 137.207031 L 161.769531 137.0625 L 161.960938 137.257812 L 161.839844 137.378906 C 162.058594 137.285156 162.152344 137.191406 162.328125 137.035156 L 162.425781 137.085938 C 162.601562 136.953125 162.738281 136.734375 162.914062 136.621094 C 163.085938 136.515625 163.238281 136.433594 163.332031 136.230469 C 163.394531 136.089844 163.371094 136.046875 163.472656 135.894531 C 163.609375 135.691406 163.683594 135.382812 163.847656 135.21875 L 163.917969 135.15625 L 163.964844 134.960938 C 164.105469 134.6875 164.265625 134.386719 164.414062 134.117188 L 164.796875 133.398438 L 164.894531 133.105469 C 164.996094 132.941406 165.09375 132.867188 165.171875 132.671875 L 165.675781 131.640625 C 165.734375 131.476562 165.855469 131.3125 165.894531 131.15625 L 165.917969 131.054688 L 166.066406 130.761719 L 166.066406 130.617188 L 166.1875 130.445312 C 166.332031 130.164062 166.421875 129.820312 166.578125 129.5625 L 166.652344 129.445312 L 166.699219 129.296875 C 166.769531 129.132812 166.828125 128.96875 166.894531 128.808594 L 167.042969 128.515625 C 167.09375 128.304688 167.121094 128.230469 167.238281 128.027344 L 167.238281 127.882812 C 167.335938 127.761719 167.386719 127.6875 167.4375 127.539062 L 167.480469 127.390625 C 167.710938 126.773438 167.96875 125.925781 168.28125 125.359375 L 168.335938 125.269531 L 168.3125 125.097656 C 168.46875 124.859375 168.546875 124.546875 168.605469 124.265625 L 168.652344 124.03125 C 168.726562 123.875 168.789062 123.808594 168.824219 123.632812 C 168.871094 123.402344 169.011719 123.292969 169.160156 123.113281 C 167.347656 129.523438 164.027344 135.882812 160.390625 141.441406 C 159.582031 142.671875 158.804688 143.953125 157.90625 145.121094 C 156.820312 144.011719 155.632812 143.003906 154.542969 141.894531 C 153.28125 140.609375 152.109375 139.238281 150.882812 137.917969 C 149.289062 136.199219 147.632812 134.523438 145.976562 132.859375 C 145.371094 132.253906 144.761719 131.65625 144.160156 131.046875 C 144.109375 130.992188 143.9375 130.855469 143.929688 130.769531 Z M 143.929688 130.769531 "/>
<path style=" stroke:none;fill-rule:nonzero;fill:url(#linear8);" d="M 66.328125 34.597656 C 77.476562 28.324219 90.679688 24.089844 103.574219 24.96875 C 108.566406 25.308594 113.472656 26.394531 118.28125 27.738281 C 123.613281 29.234375 128.769531 31.519531 133.585938 34.238281 C 137.535156 36.46875 141.273438 38.96875 144.664062 41.992188 C 144.671875 42.125 144.65625 42.417969 144.703125 42.527344 C 144.878906 42.929688 145.324219 43.386719 145.554688 43.785156 C 146.324219 45.128906 147.058594 46.5 147.785156 47.867188 C 148.980469 50.121094 149.890625 52.46875 150.699219 54.882812 C 152.058594 58.945312 153.042969 62.90625 152.601562 67.238281 C 152.476562 68.484375 152.277344 69.738281 151.785156 70.898438 C 150.554688 73.804688 148.703125 75.988281 146.304688 78 L 146.21875 78.09375 C 145.324219 79.066406 144.316406 79.941406 143.394531 80.890625 C 142.03125 82.292969 140.671875 83.953125 139.535156 85.546875 C 138.40625 87.125 137.570312 88.859375 136.570312 90.511719 C 135.210938 92.773438 133.71875 95.027344 132.171875 97.160156 C 131.363281 96.554688 130.65625 95.773438 129.929688 95.070312 C 128.261719 93.464844 126.644531 91.804688 124.988281 90.1875 C 122.429688 87.6875 119.949219 85.128906 117.410156 82.613281 C 113.59375 78.828125 109.726562 75.09375 105.882812 71.34375 C 104.589844 70.082031 103.277344 68.835938 102 67.5625 C 101.238281 66.808594 100.402344 65.765625 99.527344 65.179688 L 99.417969 64.933594 C 98.691406 64.386719 98.027344 63.589844 97.386719 62.9375 C 96.253906 61.792969 95.113281 60.664062 93.953125 59.550781 C 90.164062 56.191406 86.550781 52.628906 82.855469 49.167969 C 80.753906 47.191406 78.558594 45.3125 76.4375 43.355469 C 74.578125 41.636719 72.703125 39.945312 70.800781 38.273438 C 69.34375 36.992188 67.917969 35.714844 66.328125 34.597656 Z M 66.328125 34.597656 "/>
<path style=" stroke:none;fill-rule:nonzero;fill:url(#linear9);" d="M 93.953125 59.550781 L 94.253906 59.226562 C 94.679688 58.832031 95.492188 58.710938 96.046875 58.5625 C 99.59375 57.609375 103.3125 56.976562 106.996094 57.035156 C 110.441406 57.007812 113.914062 57.46875 117.214844 58.484375 C 119.796875 59.277344 122.335938 60.460938 124.738281 61.679688 C 130.261719 64.484375 135.121094 67.902344 139.800781 71.949219 C 141.082031 73.054688 142.3125 74.214844 143.523438 75.394531 C 144.121094 75.972656 144.714844 76.558594 145.320312 77.132812 C 145.621094 77.421875 145.945312 77.796875 146.304688 78 L 146.21875 78.09375 C 145.324219 79.066406 144.316406 79.941406 143.394531 80.890625 C 142.03125 82.292969 140.671875 83.953125 139.535156 85.546875 C 138.40625 87.125 137.570312 88.859375 136.574219 90.511719 C 135.210938 92.773438 133.71875 95.027344 132.171875 97.160156 C 131.363281 96.554688 130.65625 95.773438 129.929688 95.070312 C 128.261719 93.464844 126.644531 91.804688 124.988281 90.1875 C 122.429688 87.6875 119.949219 85.128906 117.410156 82.613281 C 113.59375 78.828125 109.726562 75.09375 105.882812 71.34375 C 104.589844 70.082031 103.277344 68.835938 102 67.5625 C 101.238281 66.808594 100.40625 65.765625 99.527344 65.179688 L 99.417969 64.933594 C 98.691406 64.386719 98.027344 63.589844 97.386719 62.9375 C 96.253906 61.792969 95.113281 60.664062 93.953125 59.550781 Z M 93.953125 59.550781 "/>
<path style=" stroke:none;fill-rule:nonzero;fill:rgb(6.666667%,52.941176%,62.745098%);fill-opacity:1;" d="M 93.953125 59.550781 L 94.253906 59.226562 C 94.679688 58.832031 95.492188 58.710938 96.046875 58.5625 C 99.59375 57.609375 103.3125 56.976562 106.996094 57.035156 L 106.910156 57.066406 C 106.675781 57.144531 106.484375 57.1875 106.238281 57.199219 C 105.890625 57.214844 105.574219 57.285156 105.222656 57.273438 L 105.078125 57.371094 C 104.558594 57.371094 104.414062 57.3125 104.003906 57.664062 L 104.003906 57.8125 L 103.90625 57.859375 C 103.589844 58.050781 103.128906 58.496094 102.980469 58.828125 L 102.828125 59.125 C 102.789062 59.214844 102.714844 59.285156 102.675781 59.375 L 102.632812 59.566406 L 102.300781 60.09375 C 102.152344 60.320312 102.023438 60.539062 101.90625 60.78125 L 101.851562 60.875 C 101.789062 61.007812 101.8125 60.953125 101.785156 61.101562 C 101.75 61.253906 101.695312 61.34375 101.613281 61.472656 L 101.511719 61.476562 L 101.511719 61.765625 L 101.367188 61.839844 L 101.292969 61.914062 C 101.3125 62.113281 101.355469 62.128906 101.21875 62.304688 L 101.074219 62.453125 L 101.074219 62.597656 L 100.929688 62.839844 L 100.78125 62.84375 L 100.828125 63.132812 L 100.683594 63.207031 C 100.554688 63.285156 100.511719 63.398438 100.441406 63.523438 L 100.292969 63.523438 L 100.253906 63.621094 C 100.195312 63.753906 100.070312 63.976562 99.925781 64.039062 L 99.804688 64.0625 L 99.730469 64.136719 L 99.609375 64.085938 C 99.554688 64.265625 99.554688 64.414062 99.5625 64.601562 L 99.65625 64.695312 L 99.535156 64.820312 L 99.5 64.925781 L 99.417969 64.933594 C 98.691406 64.386719 98.027344 63.589844 97.386719 62.9375 C 96.253906 61.792969 95.113281 60.664062 93.953125 59.550781 Z M 93.953125 59.550781 "/>
</g>
</svg>
